####
#
# OBJ File Generated by Meshlab
#
####
# Object cylinder.obj
#
# Vertices: 102
# Faces: 200
#
####
vn -0.952249 0.000000 -0.305322
v -0.015000 0.000000 0.000000
vn -0.944740 0.119348 0.305323
v -0.014883 0.001881 0.015000
vn -0.944740 0.119348 -0.305323
v -0.014883 0.001881 0.000000
vn -0.922333 0.236815 0.305322
v -0.014529 0.003729 0.015000
vn -0.922333 0.236815 -0.305322
v -0.014529 0.003729 0.000000
vn -0.885379 0.350547 0.305322
v -0.013947 0.005523 0.015000
vn -0.885379 0.350547 -0.305322
v -0.013947 0.005523 0.000000
vn -0.834462 0.458750 0.305322
v -0.013146 0.007227 0.015000
vn -0.834462 0.458749 -0.305323
v -0.013146 0.007227 0.000000
vn -0.770386 0.559718 0.305322
v -0.012135 0.008817 0.015000
vn -0.770386 0.559718 -0.305322
v -0.012135 0.008817 0.000000
vn -0.694159 0.651860 0.305322
v -0.010935 0.010269 0.015000
vn -0.694159 0.651860 -0.305322
v -0.010935 0.010269 0.000000
vn -0.606987 0.733721 0.305322
v -0.009561 0.011559 0.015000
vn -0.606987 0.733721 -0.305322
v -0.009561 0.011559 0.000000
vn -0.510240 0.804011 0.305322
v -0.008037 0.012666 0.015000
vn -0.510240 0.804011 -0.305322
v -0.008037 0.012666 0.000000
vn -0.405447 0.861621 0.305323
v -0.006387 0.013572 0.015000
vn -0.405447 0.861621 -0.305323
v -0.006387 0.013572 0.000000
vn -0.294262 0.905643 0.305322
v -0.004635 0.014265 0.015000
vn -0.294262 0.905643 -0.305322
v -0.004635 0.014265 0.000000
vn -0.178433 0.935382 0.305322
v -0.002811 0.014733 0.015000
vn -0.178433 0.935382 -0.305322
v -0.002811 0.014733 0.000000
vn -0.059792 0.950370 0.305322
v -0.000942 0.014970 0.015000
vn -0.059792 0.950370 -0.305322
v -0.000942 0.014970 0.000000
vn 0.059792 0.950370 0.305322
v 0.000942 0.014970 0.015000
vn 0.059792 0.950370 -0.305322
v 0.000942 0.014970 0.000000
vn 0.178433 0.935382 0.305322
v 0.002811 0.014733 0.015000
vn 0.178433 0.935382 -0.305322
v 0.002811 0.014733 0.000000
vn 0.294262 0.905643 0.305322
v 0.004635 0.014265 0.015000
vn 0.294262 0.905643 -0.305322
v 0.004635 0.014265 0.000000
vn 0.405447 0.861621 0.305323
v 0.006387 0.013572 0.015000
vn 0.405447 0.861621 -0.305323
v 0.006387 0.013572 0.000000
vn 0.510240 0.804011 0.305322
v 0.008037 0.012666 0.015000
vn 0.510240 0.804011 -0.305322
v 0.008037 0.012666 0.000000
vn 0.606987 0.733720 0.305323
v 0.009561 0.011559 0.015000
vn 0.606986 0.733721 -0.305322
v 0.009561 0.011559 0.000000
vn 0.694159 0.651860 0.305322
v 0.010935 0.010269 0.015000
vn 0.694159 0.651860 -0.305322
v 0.010935 0.010269 0.000000
vn 0.770386 0.559718 0.305322
v 0.012135 0.008817 0.015000
vn 0.770386 0.559718 -0.305322
v 0.012135 0.008817 0.000000
vn 0.834462 0.458749 0.305323
v 0.013146 0.007227 0.015000
vn 0.834462 0.458749 -0.305323
v 0.013146 0.007227 0.000000
vn 0.885379 0.350547 0.305322
v 0.013947 0.005523 0.015000
vn 0.885379 0.350547 -0.305322
v 0.013947 0.005523 0.000000
vn 0.922332 0.236815 0.305322
v 0.014529 0.003729 0.015000
vn 0.922332 0.236815 -0.305322
v 0.014529 0.003729 0.000000
vn 0.944740 0.119348 0.305322
v 0.014883 0.001881 0.015000
vn 0.944740 0.119348 -0.305322
v 0.014883 0.001881 0.000000
vn 0.952249 0.000000 0.305322
v 0.015000 0.000000 0.015000
vn 0.952249 0.000000 -0.305322
v 0.015000 0.000000 0.000000
vn 0.944740 -0.119348 0.305322
v 0.014883 -0.001881 0.015000
vn 0.944740 -0.119348 -0.305322
v 0.014883 -0.001881 0.000000
vn 0.922332 -0.236815 0.305322
v 0.014529 -0.003729 0.015000
vn 0.922332 -0.236815 -0.305322
v 0.014529 -0.003729 0.000000
vn 0.885379 -0.350547 0.305322
v 0.013947 -0.005523 0.015000
vn 0.885379 -0.350547 -0.305322
v 0.013947 -0.005523 0.000000
vn 0.834462 -0.458749 0.305323
v 0.013146 -0.007227 0.015000
vn 0.834462 -0.458749 -0.305323
v 0.013146 -0.007227 0.000000
vn 0.770386 -0.559718 0.305322
v 0.012135 -0.008817 0.015000
vn 0.770386 -0.559718 -0.305322
v 0.012135 -0.008817 0.000000
vn 0.694159 -0.651860 0.305322
v 0.010935 -0.010269 0.015000
vn 0.694159 -0.651860 -0.305322
v 0.010935 -0.010269 0.000000
vn 0.606987 -0.733721 0.305322
v 0.009561 -0.011559 0.015000
vn 0.606987 -0.733721 -0.305322
v 0.009561 -0.011559 0.000000
vn 0.510240 -0.804011 0.305322
v 0.008037 -0.012666 0.015000
vn 0.510240 -0.804011 -0.305322
v 0.008037 -0.012666 0.000000
vn 0.405448 -0.861620 0.305322
v 0.006387 -0.013572 0.015000
vn 0.405448 -0.861620 -0.305322
v 0.006387 -0.013572 0.000000
vn 0.294262 -0.905643 0.305322
v 0.004635 -0.014265 0.015000
vn 0.294262 -0.905643 -0.305322
v 0.004635 -0.014265 0.000000
vn 0.178433 -0.935382 0.305322
v 0.002811 -0.014733 0.015000
vn 0.178433 -0.935382 -0.305322
v 0.002811 -0.014733 0.000000
vn 0.059792 -0.950370 0.305322
v 0.000942 -0.014970 0.015000
vn 0.059792 -0.950370 -0.305322
v 0.000942 -0.014970 0.000000
vn -0.059792 -0.950370 0.305322
v -0.000942 -0.014970 0.015000
vn -0.059792 -0.950370 -0.305322
v -0.000942 -0.014970 0.000000
vn -0.178433 -0.935382 0.305322
v -0.002811 -0.014733 0.015000
vn -0.178433 -0.935382 -0.305322
v -0.002811 -0.014733 0.000000
vn -0.294262 -0.905643 0.305322
v -0.004635 -0.014265 0.015000
vn -0.294262 -0.905643 -0.305322
v -0.004635 -0.014265 0.000000
vn -0.405448 -0.861620 0.305322
v -0.006387 -0.013572 0.015000
vn -0.405448 -0.861620 -0.305322
v -0.006387 -0.013572 0.000000
vn -0.510240 -0.804011 0.305322
v -0.008037 -0.012666 0.015000
vn -0.510240 -0.804011 -0.305322
v -0.008037 -0.012666 0.000000
vn -0.606987 -0.733721 0.305322
v -0.009561 -0.011559 0.015000
vn -0.606987 -0.733721 -0.305322
v -0.009561 -0.011559 0.000000
vn -0.694160 -0.651859 0.305323
v -0.010935 -0.010269 0.015000
vn -0.694160 -0.651859 -0.305323
v -0.010935 -0.010269 0.000000
vn -0.770386 -0.559718 0.305322
v -0.012135 -0.008817 0.015000
vn -0.770386 -0.559718 -0.305322
v -0.012135 -0.008817 0.000000
vn -0.834462 -0.458750 0.305322
v -0.013146 -0.007227 0.015000
vn -0.834462 -0.458750 -0.305322
v -0.013146 -0.007227 0.000000
vn -0.885379 -0.350547 0.305322
v -0.013947 -0.005523 0.015000
vn -0.885379 -0.350547 -0.305322
v -0.013947 -0.005523 0.000000
vn -0.922333 -0.236815 0.305322
v -0.014529 -0.003729 0.015000
vn -0.922333 -0.236815 -0.305322
v -0.014529 -0.003729 0.000000
vn -0.944740 -0.119348 0.305323
v -0.014883 -0.001881 0.015000
vn -0.944740 -0.119348 -0.305323
v -0.014883 -0.001881 0.000000
vn -0.952249 0.000000 0.305322
v -0.015000 0.000000 0.015000
vn 0.000000 0.000000 1.000000
v 0.000000 0.000000 0.015000
vn 0.000000 0.000000 -1.000000
v 0.000000 0.000000 0.000000
# 102 vertices, 0 vertices normals

f 1//1 2//2 3//3
f 3//3 2//2 4//4
f 3//3 4//4 5//5
f 5//5 4//4 6//6
f 5//5 6//6 7//7
f 7//7 6//6 8//8
f 7//7 8//8 9//9
f 9//9 8//8 10//10
f 9//9 10//10 11//11
f 11//11 10//10 12//12
f 11//11 12//12 13//13
f 13//13 12//12 14//14
f 13//13 14//14 15//15
f 15//15 14//14 16//16
f 15//15 16//16 17//17
f 17//17 16//16 18//18
f 17//17 18//18 19//19
f 19//19 18//18 20//20
f 19//19 20//20 21//21
f 21//21 20//20 22//22
f 21//21 22//22 23//23
f 23//23 22//22 24//24
f 23//23 24//24 25//25
f 25//25 24//24 26//26
f 25//25 26//26 27//27
f 27//27 26//26 28//28
f 27//27 28//28 29//29
f 29//29 28//28 30//30
f 29//29 30//30 31//31
f 31//31 30//30 32//32
f 31//31 32//32 33//33
f 33//33 32//32 34//34
f 33//33 34//34 35//35
f 35//35 34//34 36//36
f 35//35 36//36 37//37
f 37//37 36//36 38//38
f 37//37 38//38 39//39
f 39//39 38//38 40//40
f 39//39 40//40 41//41
f 41//41 40//40 42//42
f 41//41 42//42 43//43
f 43//43 42//42 44//44
f 43//43 44//44 45//45
f 45//45 44//44 46//46
f 45//45 46//46 47//47
f 47//47 46//46 48//48
f 47//47 48//48 49//49
f 49//49 48//48 50//50
f 49//49 50//50 51//51
f 51//51 50//50 52//52
f 51//51 52//52 53//53
f 53//53 52//52 54//54
f 53//53 54//54 55//55
f 55//55 54//54 56//56
f 55//55 56//56 57//57
f 57//57 56//56 58//58
f 57//57 58//58 59//59
f 59//59 58//58 60//60
f 59//59 60//60 61//61
f 61//61 60//60 62//62
f 61//61 62//62 63//63
f 63//63 62//62 64//64
f 63//63 64//64 65//65
f 65//65 64//64 66//66
f 65//65 66//66 67//67
f 67//67 66//66 68//68
f 67//67 68//68 69//69
f 69//69 68//68 70//70
f 69//69 70//70 71//71
f 71//71 70//70 72//72
f 71//71 72//72 73//73
f 73//73 72//72 74//74
f 73//73 74//74 75//75
f 75//75 74//74 76//76
f 75//75 76//76 77//77
f 77//77 76//76 78//78
f 77//77 78//78 79//79
f 79//79 78//78 80//80
f 79//79 80//80 81//81
f 81//81 80//80 82//82
f 81//81 82//82 83//83
f 83//83 82//82 84//84
f 83//83 84//84 85//85
f 85//85 84//84 86//86
f 85//85 86//86 87//87
f 87//87 86//86 88//88
f 87//87 88//88 89//89
f 89//89 88//88 90//90
f 89//89 90//90 91//91
f 91//91 90//90 92//92
f 91//91 92//92 93//93
f 93//93 92//92 94//94
f 93//93 94//94 95//95
f 95//95 94//94 96//96
f 95//95 96//96 97//97
f 97//97 96//96 98//98
f 97//97 98//98 99//99
f 99//99 98//98 100//100
f 99//99 100//100 1//1
f 1//1 100//100 2//2
f 50//50 48//48 101//101
f 50//50 101//101 52//52
f 58//58 56//56 101//101
f 101//101 56//56 54//54
f 101//101 54//54 52//52
f 64//64 62//62 101//101
f 101//101 62//62 60//60
f 101//101 60//60 58//58
f 70//70 68//68 101//101
f 101//101 68//68 66//66
f 101//101 66//66 64//64
f 76//76 74//74 101//101
f 101//101 74//74 72//72
f 101//101 72//72 70//70
f 82//82 80//80 101//101
f 101//101 80//80 78//78
f 101//101 78//78 76//76
f 88//88 86//86 101//101
f 101//101 86//86 84//84
f 101//101 84//84 82//82
f 94//94 92//92 101//101
f 101//101 92//92 90//90
f 101//101 90//90 88//88
f 100//100 98//98 101//101
f 101//101 98//98 96//96
f 101//101 96//96 94//94
f 6//6 4//4 101//101
f 101//101 4//4 2//2
f 101//101 2//2 100//100
f 12//12 10//10 101//101
f 101//101 10//10 8//8
f 101//101 8//8 6//6
f 18//18 16//16 101//101
f 101//101 16//16 14//14
f 101//101 14//14 12//12
f 24//24 22//22 101//101
f 101//101 22//22 20//20
f 101//101 20//20 18//18
f 30//30 28//28 101//101
f 101//101 28//28 26//26
f 101//101 26//26 24//24
f 36//36 34//34 101//101
f 101//101 34//34 32//32
f 101//101 32//32 30//30
f 42//42 40//40 101//101
f 101//101 40//40 38//38
f 101//101 38//38 36//36
f 48//48 46//46 101//101
f 101//101 46//46 44//44
f 101//101 44//44 42//42
f 51//51 53//53 102//102
f 51//51 102//102 49//49
f 43//43 45//45 102//102
f 102//102 45//45 47//47
f 102//102 47//47 49//49
f 37//37 39//39 102//102
f 102//102 39//39 41//41
f 102//102 41//41 43//43
f 31//31 33//33 102//102
f 102//102 33//33 35//35
f 102//102 35//35 37//37
f 25//25 27//27 102//102
f 102//102 27//27 29//29
f 102//102 29//29 31//31
f 19//19 21//21 102//102
f 102//102 21//21 23//23
f 102//102 23//23 25//25
f 13//13 15//15 102//102
f 102//102 15//15 17//17
f 102//102 17//17 19//19
f 7//7 9//9 102//102
f 102//102 9//9 11//11
f 102//102 11//11 13//13
f 1//1 3//3 102//102
f 102//102 3//3 5//5
f 102//102 5//5 7//7
f 95//95 97//97 102//102
f 102//102 97//97 99//99
f 102//102 99//99 1//1
f 89//89 91//91 102//102
f 102//102 91//91 93//93
f 102//102 93//93 95//95
f 83//83 85//85 102//102
f 102//102 85//85 87//87
f 102//102 87//87 89//89
f 77//77 79//79 102//102
f 102//102 79//79 81//81
f 102//102 81//81 83//83
f 71//71 73//73 102//102
f 102//102 73//73 75//75
f 102//102 75//75 77//77
f 65//65 67//67 102//102
f 102//102 67//67 69//69
f 102//102 69//69 71//71
f 59//59 61//61 102//102
f 102//102 61//61 63//63
f 102//102 63//63 65//65
f 53//53 55//55 102//102
f 102//102 55//55 57//57
f 102//102 57//57 59//59
# 200 faces, 0 coords texture

# End of File
