####
#
# OBJ File Generated by Meshlab
#
####
# Object cylinder_2cm.obj
#
# Vertices: 114
# Faces: 224
#
####
vn 0.051114 -0.714668 0.697594
v 0.000571 -0.009984 0.010000
vn 0.000000 -0.713421 0.700735
v -0.000000 -0.010000 0.010000
vn 0.000000 -0.713421 -0.700735
v -0.000000 -0.010000 -0.010000
vn -0.051114 -0.714668 -0.697594
v -0.000571 -0.009984 -0.010000
vn -0.051114 -0.714668 0.697594
v -0.000571 -0.009984 0.010000
vn -0.122693 -0.708974 0.694480
v -0.001705 -0.009854 0.010000
vn -0.122693 -0.708974 -0.694480
v -0.001705 -0.009854 -0.010000
vn -0.202710 -0.690366 0.694481
v -0.002817 -0.009595 0.010000
vn -0.202710 -0.690366 -0.694481
v -0.002817 -0.009595 -0.010000
vn -0.280084 -0.662759 0.694480
v -0.003893 -0.009211 0.010000
vn -0.280084 -0.662759 -0.694480
v -0.003893 -0.009211 -0.010000
vn -0.353808 -0.626512 0.694481
v -0.004917 -0.008707 0.010000
vn -0.353808 -0.626512 -0.694481
v -0.004917 -0.008707 -0.010000
vn -0.422918 -0.582097 0.694480
v -0.005878 -0.008090 0.010000
vn -0.422918 -0.582097 -0.694480
v -0.005878 -0.008090 -0.010000
vn -0.486516 -0.530094 0.694481
v -0.006762 -0.007367 0.010000
vn -0.486516 -0.530094 -0.694480
v -0.006762 -0.007367 -0.010000
vn -0.543770 -0.471180 0.694480
v -0.007557 -0.006549 0.010000
vn -0.543771 -0.471180 -0.694480
v -0.007557 -0.006549 -0.010000
vn -0.593937 -0.406123 0.694480
v -0.008255 -0.005644 0.010000
vn -0.593937 -0.406123 -0.694480
v -0.008255 -0.005644 -0.010000
vn -0.636360 -0.335773 0.694480
v -0.008844 -0.004667 0.010000
vn -0.636360 -0.335772 -0.694481
v -0.008844 -0.004667 -0.010000
vn -0.670487 -0.261044 0.694480
v -0.009319 -0.003628 0.010000
vn -0.670487 -0.261044 -0.694480
v -0.009319 -0.003628 -0.010000
vn -0.695873 -0.182913 0.694480
v -0.009671 -0.002542 0.010000
vn -0.695873 -0.182913 -0.694480
v -0.009671 -0.002542 -0.010000
vn -0.712188 -0.102397 0.694480
v -0.009898 -0.001423 0.010000
vn -0.712188 -0.102397 -0.694480
v -0.009898 -0.001423 -0.010000
vn -0.719218 -0.020546 0.694481
v -0.009996 -0.000286 0.010000
vn -0.719218 -0.020546 -0.694481
v -0.009996 -0.000286 -0.010000
vn -0.716872 0.061572 0.694480
v -0.009963 0.000856 0.010000
vn -0.716872 0.061572 -0.694480
v -0.009963 0.000856 -0.010000
vn -0.705181 0.142888 0.694481
v -0.009801 0.001986 0.010000
vn -0.705181 0.142888 -0.694481
v -0.009801 0.001986 -0.010000
vn -0.684296 0.222341 0.694480
v -0.009511 0.003090 0.010000
vn -0.684296 0.222341 -0.694480
v -0.009511 0.003090 -0.010000
vn -0.654491 0.298896 0.694481
v -0.009096 0.004154 0.010000
vn -0.654491 0.298896 -0.694480
v -0.009096 0.004154 -0.010000
vn -0.616153 0.371554 0.694480
v -0.008563 0.005164 0.010000
vn -0.616153 0.371554 -0.694480
v -0.008563 0.005164 -0.010000
vn -0.569783 0.439368 0.694480
v -0.007919 0.006106 0.010000
vn -0.569783 0.439368 -0.694480
v -0.007919 0.006106 -0.010000
vn -0.515985 0.501455 0.694481
v -0.007171 0.006969 0.010000
vn -0.515985 0.501455 -0.694480
v -0.007171 0.006969 -0.010000
vn -0.455460 0.557004 0.694480
v -0.006330 0.007741 0.010000
vn -0.455460 0.557004 -0.694480
v -0.006330 0.007741 -0.010000
vn -0.388997 0.605292 0.694480
v -0.005406 0.008413 0.010000
vn -0.388997 0.605292 -0.694480
v -0.005406 0.008413 -0.010000
vn -0.317464 0.645689 0.694480
v -0.004412 0.008974 0.010000
vn -0.317464 0.645689 -0.694480
v -0.004412 0.008974 -0.010000
vn -0.241791 0.677668 0.694480
v -0.003360 0.009418 0.010000
vn -0.241791 0.677668 -0.694480
v -0.003360 0.009418 -0.010000
vn -0.162967 0.700813 0.694480
v -0.002265 0.009740 0.010000
vn -0.162967 0.700813 -0.694480
v -0.002265 0.009740 -0.010000
vn -0.082018 0.714822 0.694480
v -0.001140 0.009935 0.010000
vn -0.082018 0.714822 -0.694480
v -0.001140 0.009935 -0.010000
vn 0.000000 0.719512 0.694481
v -0.000000 0.010000 0.010000
vn 0.000000 0.719512 -0.694480
v -0.000000 0.010000 -0.010000
vn 0.082018 0.714822 0.694480
v 0.001140 0.009935 0.010000
vn 0.082018 0.714822 -0.694480
v 0.001140 0.009935 -0.010000
vn 0.162967 0.700813 0.694480
v 0.002265 0.009740 0.010000
vn 0.162967 0.700813 -0.694480
v 0.002265 0.009740 -0.010000
vn 0.241791 0.677668 0.694480
v 0.003360 0.009418 0.010000
vn 0.241791 0.677668 -0.694480
v 0.003360 0.009418 -0.010000
vn 0.317464 0.645689 0.694481
v 0.004412 0.008974 0.010000
vn 0.317464 0.645689 -0.694480
v 0.004412 0.008974 -0.010000
vn 0.388998 0.605292 0.694480
v 0.005406 0.008413 0.010000
vn 0.388998 0.605292 -0.694480
v 0.005406 0.008413 -0.010000
vn 0.455460 0.557004 0.694481
v 0.006330 0.007741 0.010000
vn 0.455460 0.557004 -0.694481
v 0.006330 0.007741 -0.010000
vn 0.515984 0.501455 0.694480
v 0.007171 0.006969 0.010000
vn 0.515984 0.501455 -0.694480
v 0.007171 0.006969 -0.010000
vn 0.569783 0.439368 0.694480
v 0.007919 0.006106 0.010000
vn 0.569783 0.439368 -0.694480
v 0.007919 0.006106 -0.010000
vn 0.616153 0.371554 0.694481
v 0.008563 0.005164 0.010000
vn 0.616153 0.371554 -0.694480
v 0.008563 0.005164 -0.010000
vn 0.654491 0.298896 0.694480
v 0.009096 0.004154 0.010000
vn 0.654491 0.298896 -0.694480
v 0.009096 0.004154 -0.010000
vn 0.684296 0.222341 0.694480
v 0.009511 0.003090 0.010000
vn 0.684296 0.222341 -0.694480
v 0.009511 0.003090 -0.010000
vn 0.705181 0.142888 0.694481
v 0.009801 0.001986 0.010000
vn 0.705181 0.142888 -0.694481
v 0.009801 0.001986 -0.010000
vn 0.716872 0.061572 0.694480
v 0.009963 0.000856 0.010000
vn 0.716872 0.061572 -0.694480
v 0.009963 0.000856 -0.010000
vn 0.719218 -0.020547 0.694480
v 0.009996 -0.000286 0.010000
vn 0.719218 -0.020547 -0.694480
v 0.009996 -0.000286 -0.010000
vn 0.712188 -0.102397 0.694480
v 0.009898 -0.001423 0.010000
vn 0.712188 -0.102397 -0.694480
v 0.009898 -0.001423 -0.010000
vn 0.695873 -0.182913 0.694480
v 0.009671 -0.002542 0.010000
vn 0.695873 -0.182913 -0.694480
v 0.009671 -0.002542 -0.010000
vn 0.670487 -0.261045 0.694480
v 0.009319 -0.003628 0.010000
vn 0.670487 -0.261045 -0.694480
v 0.009319 -0.003628 -0.010000
vn 0.636360 -0.335772 0.694481
v 0.008844 -0.004667 0.010000
vn 0.636360 -0.335772 -0.694481
v 0.008844 -0.004667 -0.010000
vn 0.593937 -0.406124 0.694480
v 0.008255 -0.005644 0.010000
vn 0.593937 -0.406123 -0.694480
v 0.008255 -0.005644 -0.010000
vn 0.543770 -0.471180 0.694481
v 0.007557 -0.006549 0.010000
vn 0.543771 -0.471180 -0.694481
v 0.007557 -0.006549 -0.010000
vn 0.486516 -0.530093 0.694480
v 0.006762 -0.007367 0.010000
vn 0.486516 -0.530093 -0.694480
v 0.006762 -0.007367 -0.010000
vn 0.422918 -0.582097 0.694480
v 0.005878 -0.008090 0.010000
vn 0.422918 -0.582097 -0.694480
v 0.005878 -0.008090 -0.010000
vn 0.353808 -0.626512 0.694481
v 0.004917 -0.008707 0.010000
vn 0.353808 -0.626512 -0.694481
v 0.004917 -0.008707 -0.010000
vn 0.280084 -0.662759 0.694480
v 0.003893 -0.009211 0.010000
vn 0.280084 -0.662759 -0.694480
v 0.003893 -0.009211 -0.010000
vn 0.202710 -0.690366 0.694481
v 0.002817 -0.009595 0.010000
vn 0.202710 -0.690366 -0.694481
v 0.002817 -0.009595 -0.010000
vn 0.122693 -0.708974 0.694480
v 0.001705 -0.009854 0.010000
vn 0.122693 -0.708974 -0.694480
v 0.001705 -0.009854 -0.010000
vn 0.051114 -0.714668 -0.697594
v 0.000571 -0.009984 -0.010000
vn 0.000000 0.000000 1.000000
v -0.000000 0.000000 0.010000
vn -0.000000 0.000000 -1.000000
v -0.000000 0.000000 -0.010000
# 114 vertices, 0 vertices normals

f 1//1 2//2 3//3
f 3//3 2//2 4//4
f 2//2 5//5 4//4
f 4//4 5//5 6//6
f 4//4 6//6 7//7
f 7//7 6//6 8//8
f 7//7 8//8 9//9
f 9//9 8//8 10//10
f 9//9 10//10 11//11
f 11//11 10//10 12//12
f 11//11 12//12 13//13
f 13//13 12//12 14//14
f 13//13 14//14 15//15
f 15//15 14//14 16//16
f 15//15 16//16 17//17
f 17//17 16//16 18//18
f 17//17 18//18 19//19
f 19//19 18//18 20//20
f 19//19 20//20 21//21
f 21//21 20//20 22//22
f 21//21 22//22 23//23
f 23//23 22//22 24//24
f 23//23 24//24 25//25
f 25//25 24//24 26//26
f 25//25 26//26 27//27
f 27//27 26//26 28//28
f 27//27 28//28 29//29
f 29//29 28//28 30//30
f 29//29 30//30 31//31
f 31//31 30//30 32//32
f 31//31 32//32 33//33
f 33//33 32//32 34//34
f 33//33 34//34 35//35
f 35//35 34//34 36//36
f 35//35 36//36 37//37
f 37//37 36//36 38//38
f 37//37 38//38 39//39
f 39//39 38//38 40//40
f 39//39 40//40 41//41
f 41//41 40//40 42//42
f 41//41 42//42 43//43
f 43//43 42//42 44//44
f 43//43 44//44 45//45
f 45//45 44//44 46//46
f 45//45 46//46 47//47
f 47//47 46//46 48//48
f 47//47 48//48 49//49
f 49//49 48//48 50//50
f 49//49 50//50 51//51
f 51//51 50//50 52//52
f 51//51 52//52 53//53
f 53//53 52//52 54//54
f 53//53 54//54 55//55
f 55//55 54//54 56//56
f 55//55 56//56 57//57
f 57//57 56//56 58//58
f 57//57 58//58 59//59
f 59//59 58//58 60//60
f 59//59 60//60 61//61
f 61//61 60//60 62//62
f 61//61 62//62 63//63
f 63//63 62//62 64//64
f 63//63 64//64 65//65
f 65//65 64//64 66//66
f 65//65 66//66 67//67
f 67//67 66//66 68//68
f 67//67 68//68 69//69
f 69//69 68//68 70//70
f 69//69 70//70 71//71
f 71//71 70//70 72//72
f 71//71 72//72 73//73
f 73//73 72//72 74//74
f 73//73 74//74 75//75
f 75//75 74//74 76//76
f 75//75 76//76 77//77
f 77//77 76//76 78//78
f 77//77 78//78 79//79
f 79//79 78//78 80//80
f 79//79 80//80 81//81
f 81//81 80//80 82//82
f 81//81 82//82 83//83
f 83//83 82//82 84//84
f 83//83 84//84 85//85
f 85//85 84//84 86//86
f 85//85 86//86 87//87
f 87//87 86//86 88//88
f 87//87 88//88 89//89
f 89//89 88//88 90//90
f 89//89 90//90 91//91
f 91//91 90//90 92//92
f 91//91 92//92 93//93
f 93//93 92//92 94//94
f 93//93 94//94 95//95
f 95//95 94//94 96//96
f 95//95 96//96 97//97
f 97//97 96//96 98//98
f 97//97 98//98 99//99
f 99//99 98//98 100//100
f 99//99 100//100 101//101
f 101//101 100//100 102//102
f 101//101 102//102 103//103
f 103//103 102//102 104//104
f 103//103 104//104 105//105
f 105//105 104//104 106//106
f 105//105 106//106 107//107
f 107//107 106//106 108//108
f 107//107 108//108 109//109
f 109//109 108//108 110//110
f 109//109 110//110 111//111
f 111//111 110//110 1//1
f 111//111 1//1 112//112
f 112//112 1//1 3//3
f 2//2 1//1 113//113
f 2//2 113//113 5//5
f 10//10 8//8 113//113
f 113//113 8//8 6//6
f 113//113 6//6 5//5
f 16//16 14//14 113//113
f 113//113 14//14 12//12
f 113//113 12//12 10//10
f 22//22 20//20 113//113
f 113//113 20//20 18//18
f 113//113 18//18 16//16
f 28//28 26//26 113//113
f 113//113 26//26 24//24
f 113//113 24//24 22//22
f 34//34 32//32 113//113
f 113//113 32//32 30//30
f 113//113 30//30 28//28
f 40//40 38//38 113//113
f 113//113 38//38 36//36
f 113//113 36//36 34//34
f 46//46 44//44 113//113
f 113//113 44//44 42//42
f 113//113 42//42 40//40
f 52//52 50//50 113//113
f 113//113 50//50 48//48
f 113//113 48//48 46//46
f 58//58 56//56 113//113
f 113//113 56//56 54//54
f 113//113 54//54 52//52
f 64//64 62//62 113//113
f 113//113 62//62 60//60
f 113//113 60//60 58//58
f 70//70 68//68 113//113
f 113//113 68//68 66//66
f 113//113 66//66 64//64
f 76//76 74//74 113//113
f 113//113 74//74 72//72
f 113//113 72//72 70//70
f 82//82 80//80 113//113
f 113//113 80//80 78//78
f 113//113 78//78 76//76
f 88//88 86//86 113//113
f 113//113 86//86 84//84
f 113//113 84//84 82//82
f 94//94 92//92 113//113
f 113//113 92//92 90//90
f 113//113 90//90 88//88
f 100//100 98//98 113//113
f 113//113 98//98 96//96
f 113//113 96//96 94//94
f 106//106 104//104 113//113
f 113//113 104//104 102//102
f 113//113 102//102 100//100
f 1//1 110//110 113//113
f 113//113 110//110 108//108
f 113//113 108//108 106//106
f 3//3 4//4 114//114
f 3//3 114//114 112//112
f 107//107 109//109 114//114
f 114//114 109//109 111//111
f 114//114 111//111 112//112
f 101//101 103//103 114//114
f 114//114 103//103 105//105
f 114//114 105//105 107//107
f 95//95 97//97 114//114
f 114//114 97//97 99//99
f 114//114 99//99 101//101
f 89//89 91//91 114//114
f 114//114 91//91 93//93
f 114//114 93//93 95//95
f 83//83 85//85 114//114
f 114//114 85//85 87//87
f 114//114 87//87 89//89
f 77//77 79//79 114//114
f 114//114 79//79 81//81
f 114//114 81//81 83//83
f 71//71 73//73 114//114
f 114//114 73//73 75//75
f 114//114 75//75 77//77
f 65//65 67//67 114//114
f 114//114 67//67 69//69
f 114//114 69//69 71//71
f 59//59 61//61 114//114
f 114//114 61//61 63//63
f 114//114 63//63 65//65
f 53//53 55//55 114//114
f 114//114 55//55 57//57
f 114//114 57//57 59//59
f 47//47 49//49 114//114
f 114//114 49//49 51//51
f 114//114 51//51 53//53
f 41//41 43//43 114//114
f 114//114 43//43 45//45
f 114//114 45//45 47//47
f 35//35 37//37 114//114
f 114//114 37//37 39//39
f 114//114 39//39 41//41
f 29//29 31//31 114//114
f 114//114 31//31 33//33
f 114//114 33//33 35//35
f 23//23 25//25 114//114
f 114//114 25//25 27//27
f 114//114 27//27 29//29
f 17//17 19//19 114//114
f 114//114 19//19 21//21
f 114//114 21//21 23//23
f 11//11 13//13 114//114
f 114//114 13//13 15//15
f 114//114 15//15 17//17
f 4//4 7//7 114//114
f 114//114 7//7 9//9
f 114//114 9//9 11//11
# 224 faces, 0 coords texture

# End of File
