####
#
# OBJ File Generated by Meshlab
#
####
# Object spatula.obj
#
# Vertices: 24
# Faces: 32
#
####
vn -0.000000 -0.408872 -0.912592
v -38.999992 -16.292397 210.320206
vn -0.574765 0.310503 -0.757122
v -38.999992 -7.166527 206.231506
vn -0.000000 -0.408872 -0.912592
v -3.999992 -16.292397 210.320206
vn -0.514530 0.766160 -0.385042
v -3.999992 -7.166527 206.231506
vn -0.537190 0.344868 0.769736
v -38.999989 29.106634 299.420898
vn 0.537190 0.344868 0.769736
v 41.000011 29.106634 299.420898
vn 0.514530 0.766160 -0.385042
v 6.000008 -7.166527 206.231506
vn 0.574765 0.310503 -0.757122
v 41.000008 -7.166527 206.231506
vn 0.695575 -0.640147 0.326171
v 41.000008 -16.292397 210.320206
vn 0.187699 -0.875170 0.445922
v 6.000008 -16.292397 210.320206
vn -0.187699 -0.875170 0.445922
v -3.999992 -16.292397 210.320206
vn -0.695575 -0.640147 0.326171
v -38.999992 -16.292397 210.320206
vn -0.000000 -0.408872 -0.912592
v 6.000008 -16.292397 210.320206
vn -0.000000 -0.408872 -0.912592
v 41.000008 -16.292397 210.320206
vn 0.774490 -0.609518 -0.169273
v 6.000007 -2.949085 188.519348
vn -0.000000 -0.852924 -0.522035
v 6.000008 -16.292397 210.320206
vn -0.774490 -0.609518 -0.169273
v -3.999993 -2.949085 188.519348
vn -0.000000 -0.852924 -0.522035
v -3.999992 -16.292397 210.320206
vn 0.577350 -0.581639 -0.573030
v 6.000000 -4.439978 -11.475189
vn -0.577351 -0.581639 -0.573029
v -4.000000 -4.439978 -11.475189
vn 0.577350 0.573030 -0.581639
v 6.000000 0.559871 -11.512476
vn -0.577350 0.573030 -0.581639
v -4.000000 0.559871 -11.512476
vn 0.656707 0.733285 0.176152
v 6.000007 2.050738 188.482025
vn -0.656707 0.733285 0.176152
v -3.999993 2.050738 188.482025
# 24 vertices, 0 vertices normals

f 1//1 2//2 3//3
f 3//3 2//2 4//4
f 2//2 5//5 4//4
f 4//4 5//5 6//6
f 4//4 6//6 7//7
f 7//7 6//6 8//8
f 9//9 6//6 10//10
f 10//10 6//6 5//5
f 10//10 5//5 11//11
f 11//11 5//5 12//12
f 7//7 8//8 13//13
f 13//13 8//8 14//14
f 6//6 9//9 8//8
f 2//2 12//12 5//5
f 15//15 16//16 17//17
f 17//17 16//16 18//18
f 19//19 15//15 20//20
f 20//20 15//15 17//17
f 21//21 19//19 22//22
f 22//22 19//19 20//20
f 23//23 21//21 24//24
f 24//24 21//21 22//22
f 7//7 23//23 4//4
f 4//4 23//23 24//24
f 19//19 21//21 15//15
f 15//15 21//21 23//23
f 15//15 23//23 10//10
f 10//10 23//23 7//7
f 11//11 4//4 17//17
f 17//17 4//4 24//24
f 17//17 24//24 20//20
f 20//20 24//24 22//22
# 32 faces, 0 coords texture

# End of File
