####
#
# OBJ File Generated by Meshlab
#
####
# Object spatula.obj
#
# Vertices: 24
# Faces: 36
#
####
vn -0.577350 -0.776535 -0.252312
v -40.000076 -11.752504 219.229996
vn -0.572289 0.291946 -0.766324
v -40.000092 6.067607 210.150299
vn -0.214985 -0.976589 0.007414
v -5.000099 -11.752504 219.229980
vn -0.373943 0.746038 -0.550994
v -5.000134 6.067613 210.150177
vn 0.000000 0.931759 -0.363079
v -40.000153 42.556637 303.790771
vn 0.000000 0.931759 -0.363079
v 39.999859 42.556637 303.790741
vn 0.373944 0.746038 -0.550993
v 4.999884 6.067609 210.150269
vn 0.572290 0.291946 -0.766324
v 39.999840 6.067604 210.150330
vn 0.577350 -0.252311 0.776535
v 39.999756 33.646549 308.330627
vn 0.728506 0.311002 0.610375
v 39.999859 42.556637 303.790741
vn -0.577351 -0.252311 0.776534
v -40.000126 33.646553 308.330566
vn -0.728506 0.311002 0.610374
v -40.000153 42.556637 303.790771
vn 0.577350 -0.776535 -0.252311
v 39.999855 -11.752509 219.230087
vn 0.214985 -0.976589 0.007414
v 4.999863 -11.752507 219.230042
vn 0.746639 -0.656858 -0.105207
v 4.999918 -2.005082 190.431351
vn 0.000000 -0.947214 -0.320601
v 4.999863 -11.752507 219.230042
vn -0.746639 -0.656857 -0.105208
v -5.000084 -2.005079 190.431305
vn 0.000000 -0.947214 -0.320601
v -5.000099 -11.752504 219.229980
vn 0.577350 -0.582367 -0.572290
v 5.000001 -3.750401 -9.560884
vn -0.577350 -0.582367 -0.572290
v -4.999992 -3.750401 -9.560890
vn 0.577350 0.572291 -0.582366
v 5.000003 1.249400 -9.604519
vn -0.577350 0.572290 -0.582367
v -4.999993 1.249400 -9.604522
vn 0.723842 0.687676 -0.056164
v 4.999895 2.994733 190.387772
vn -0.723842 0.687676 -0.056164
v -5.000084 2.994735 190.387741
# 24 vertices, 0 vertices normals

f 1//1 2//2 3//3
f 3//3 2//2 4//4
f 2//2 5//5 4//4
f 4//4 5//5 6//6
f 4//4 6//6 7//7
f 7//7 6//6 8//8
f 9//9 10//10 11//11
f 11//11 10//10 12//12
f 13//13 9//9 14//14
f 14//14 9//9 11//11
f 14//14 11//11 3//3
f 3//3 11//11 1//1
f 7//7 8//8 14//14
f 14//14 8//8 13//13
f 9//9 13//13 10//10
f 10//10 13//13 8//8
f 1//1 11//11 2//2
f 2//2 11//11 12//12
f 15//15 16//16 17//17
f 17//17 16//16 18//18
f 19//19 15//15 20//20
f 20//20 15//15 17//17
f 21//21 19//19 22//22
f 22//22 19//19 20//20
f 23//23 21//21 24//24
f 24//24 21//21 22//22
f 7//7 23//23 4//4
f 4//4 23//23 24//24
f 19//19 21//21 15//15
f 15//15 21//21 23//23
f 15//15 23//23 14//14
f 14//14 23//23 7//7
f 3//3 4//4 17//17
f 17//17 4//4 24//24
f 17//17 24//24 20//20
f 20//20 24//24 22//22
# 36 faces, 0 coords texture

# End of File
