####
#
# OBJ File Generated by Meshlab
#
####
# Object spatula.obj
#
# Vertices: 22
# Faces: 36
#
####
o spatula
mtllib spatula.mtl

vn -0.577350 -0.776534 -0.252312
v -39.999992 -16.064886 210.766907
vn -0.577350 0.252311 -0.776535
v -39.999992 -7.154796 206.226944
vn -0.159246 -0.987211 0.007494
v -4.999992 -16.064886 210.766907
vn -0.526990 0.727477 -0.439385
v -4.999992 -7.154796 206.226944
vn -0.577350 0.776534 0.252312
v -39.999989 38.016731 294.881104
vn 0.577350 0.776535 0.252311
v 40.000011 38.016731 294.881104
vn 0.526990 0.727477 -0.439385
v 5.000008 -7.154796 206.226944
vn 0.577350 0.252311 -0.776534
v 40.000008 -7.154796 206.226944
vn 0.577350 -0.252311 0.776534
v 40.000011 29.106617 299.420929
vn -0.577350 -0.252312 0.776534
v -39.999989 29.106617 299.420929
vn 0.577350 -0.776535 -0.252312
v 40.000008 -16.064886 210.766907
vn 0.159245 -0.987211 0.007494
v 5.000008 -16.064886 210.766907
vn 0.772412 -0.613321 -0.164976
v 5.000007 -2.937413 188.514801
vn -0.000000 -0.861291 -0.508113
v 5.000008 -16.064886 210.766907
vn -0.772412 -0.613322 -0.164976
v -4.999993 -2.937413 188.514801
vn -0.000000 -0.861291 -0.508113
v -4.999992 -16.064886 210.766907
vn 0.577350 -0.581639 -0.573030
v 5.000000 -4.428269 -11.479753
vn -0.577351 -0.581638 -0.573029
v -5.000000 -4.428269 -11.479753
vn 0.577350 0.573030 -0.581639
v 5.000000 0.571581 -11.517041
vn -0.577350 0.573030 -0.581639
v -5.000000 0.571581 -11.517041
vn 0.656707 0.733285 0.176152
v 5.000007 2.062449 188.477493
vn -0.656707 0.733285 0.176153
v -4.999993 2.062449 188.477493
# 22 vertices, 0 vertices normals

g spatula
usemtl spatula

f 1//1 2//2 3//3
f 3//3 2//2 4//4
f 2//2 5//5 4//4
f 4//4 5//5 6//6
f 4//4 6//6 7//7
f 7//7 6//6 8//8
f 9//9 6//6 10//10
f 10//10 6//6 5//5
f 11//11 9//9 12//12
f 12//12 9//9 10//10
f 12//12 10//10 3//3
f 3//3 10//10 1//1
f 7//7 8//8 12//12
f 12//12 8//8 11//11
f 9//9 11//11 6//6
f 6//6 11//11 8//8
f 1//1 10//10 2//2
f 2//2 10//10 5//5
f 13//13 14//14 15//15
f 15//15 14//14 16//16
f 17//17 13//13 18//18
f 18//18 13//13 15//15
f 19//19 17//17 20//20
f 20//20 17//17 18//18
f 21//21 19//19 22//22
f 22//22 19//19 20//20
f 7//7 21//21 4//4
f 4//4 21//21 22//22
f 17//17 19//19 13//13
f 13//13 19//19 21//21
f 13//13 21//21 12//12
f 12//12 21//21 7//7
f 3//3 4//4 15//15
f 15//15 4//4 22//22
f 15//15 22//22 18//18
f 18//18 22//22 20//20
# 36 faces, 0 coords texture

# End of File
