####
#
# OBJ File Generated by Meshlab
#
####
# Object pipe_hole.obj
#
# Vertices: 58
# Faces: 112
#
####
vn 0.577350 -0.577350 0.577350
v 0.100000 0.000000 0.010000
vn 0.577350 -0.577350 -0.577350
v 0.100000 0.000000 0.000000
vn 0.577350 0.577350 0.577351
v 0.100000 0.050000 0.010000
vn 0.577350 0.577350 -0.577351
v 0.100000 0.050000 0.000000
vn -0.577350 -0.577350 -0.577350
v 0.000000 0.000000 0.000000
vn -0.577350 -0.577350 0.577350
v 0.000000 0.000000 0.010000
vn -0.577350 0.577350 -0.577351
v 0.000000 0.050000 0.000000
vn -0.577350 0.577350 0.577351
v 0.000000 0.050000 0.010000
vn 0.685841 0.090293 0.722128
v 0.025214 0.046737 0.010000
vn 0.556441 0.594107 0.580870
v 0.025000 0.050000 0.010000
vn -0.599081 0.345880 0.722128
v 0.071651 0.037500 0.010000
vn -0.548810 0.421116 0.722128
v 0.069834 0.034781 0.010000
vn -0.489148 0.489147 0.722129
v 0.067678 0.032322 0.010000
vn -0.421116 0.548810 0.722128
v 0.065219 0.030166 0.010000
vn -0.345879 0.599081 0.722128
v 0.062500 0.028349 0.010000
vn -0.264725 0.639102 0.722128
v 0.059567 0.026903 0.010000
vn -0.179041 0.668188 0.722129
v 0.056470 0.025852 0.010000
vn 0.345879 0.599081 0.722129
v 0.037500 0.028349 0.010000
vn 0.264725 0.639102 0.722128
v 0.040433 0.026903 0.010000
vn 0.179040 0.668188 0.722128
v 0.043530 0.025852 0.010000
vn -0.556442 0.594106 0.580870
v 0.075000 0.050000 0.010000
vn -0.685841 0.090292 0.722129
v 0.074786 0.046737 0.010000
vn -0.668188 0.179040 0.722128
v 0.074148 0.043530 0.010000
vn -0.639102 0.264725 0.722129
v 0.073097 0.040433 0.010000
vn 0.421116 0.548809 0.722128
v 0.034781 0.030166 0.010000
vn 0.489147 0.489147 0.722129
v 0.032322 0.032322 0.010000
vn 0.548809 0.421116 0.722128
v 0.030166 0.034781 0.010000
vn 0.599081 0.345879 0.722129
v 0.028349 0.037500 0.010000
vn 0.639102 0.264725 0.722128
v 0.026903 0.040433 0.010000
vn 0.668188 0.179040 0.722129
v 0.025852 0.043530 0.010000
vn -0.090293 0.685841 0.722128
v 0.053263 0.025214 0.010000
vn 0.000000 0.691759 0.722128
v 0.050000 0.025000 0.010000
vn 0.090293 0.685841 0.722128
v 0.046737 0.025214 0.010000
vn -0.685841 0.090292 -0.722129
v 0.074786 0.046737 0.000000
vn -0.556442 0.594106 -0.580870
v 0.075000 0.050000 0.000000
vn 0.599081 0.345879 -0.722129
v 0.028349 0.037500 0.000000
vn 0.548809 0.421116 -0.722128
v 0.030166 0.034781 0.000000
vn 0.489147 0.489147 -0.722129
v 0.032322 0.032322 0.000000
vn 0.556441 0.594107 -0.580870
v 0.025000 0.050000 0.000000
vn 0.685841 0.090293 -0.722128
v 0.025214 0.046737 0.000000
vn 0.668188 0.179040 -0.722129
v 0.025852 0.043530 0.000000
vn 0.639102 0.264725 -0.722128
v 0.026903 0.040433 0.000000
vn 0.421116 0.548809 -0.722128
v 0.034781 0.030166 0.000000
vn 0.345879 0.599081 -0.722129
v 0.037500 0.028349 0.000000
vn 0.264725 0.639102 -0.722128
v 0.040433 0.026903 0.000000
vn -0.090293 0.685841 -0.722128
v 0.053263 0.025214 0.000000
vn -0.179041 0.668188 -0.722129
v 0.056470 0.025852 0.000000
vn -0.264725 0.639102 -0.722128
v 0.059567 0.026903 0.000000
vn -0.345879 0.599081 -0.722128
v 0.062500 0.028349 0.000000
vn -0.421116 0.548809 -0.722128
v 0.065219 0.030166 0.000000
vn -0.489148 0.489147 -0.722129
v 0.067678 0.032322 0.000000
vn -0.548810 0.421116 -0.722128
v 0.069834 0.034781 0.000000
vn 0.179040 0.668188 -0.722128
v 0.043530 0.025852 0.000000
vn 0.090293 0.685841 -0.722128
v 0.046737 0.025214 0.000000
vn 0.000000 0.691759 -0.722128
v 0.050000 0.025000 0.000000
vn -0.599081 0.345880 -0.722128
v 0.071651 0.037500 0.000000
vn -0.639102 0.264725 -0.722129
v 0.073097 0.040433 0.000000
vn -0.668188 0.179040 -0.722128
v 0.074148 0.043530 0.000000
# 58 vertices, 0 vertices normals

f 1//1 2//2 3//3
f 3//3 2//2 4//4
f 5//5 6//6 7//7
f 7//7 6//6 8//8
f 1//1 6//6 2//2
f 2//2 6//6 5//5
f 9//9 10//10 8//8
f 11//11 12//12 1//1
f 1//1 12//12 13//13
f 1//1 13//13 14//14
f 14//14 15//15 1//1
f 1//1 15//15 16//16
f 1//1 16//16 17//17
f 18//18 6//6 19//19
f 19//19 6//6 20//20
f 21//21 22//22 3//3
f 3//3 22//22 23//23
f 3//3 23//23 1//1
f 1//1 23//23 24//24
f 1//1 24//24 11//11
f 18//18 25//25 6//6
f 6//6 25//25 26//26
f 6//6 26//26 27//27
f 27//27 28//28 6//6
f 6//6 28//28 29//29
f 6//6 29//29 8//8
f 8//8 29//29 30//30
f 8//8 30//30 9//9
f 17//17 31//31 1//1
f 1//1 31//31 32//32
f 1//1 32//32 6//6
f 6//6 32//32 33//33
f 6//6 33//33 20//20
f 34//34 35//35 4//4
f 36//36 37//37 5//5
f 5//5 37//37 38//38
f 39//39 40//40 7//7
f 7//7 40//40 41//41
f 7//7 41//41 5//5
f 5//5 41//41 42//42
f 5//5 42//42 36//36
f 38//38 43//43 5//5
f 5//5 43//43 44//44
f 5//5 44//44 45//45
f 46//46 47//47 2//2
f 2//2 47//47 48//48
f 2//2 48//48 49//49
f 49//49 50//50 2//2
f 2//2 50//50 51//51
f 2//2 51//51 52//52
f 45//45 53//53 5//5
f 5//5 53//53 54//54
f 5//5 54//54 2//2
f 2//2 54//54 55//55
f 2//2 55//55 46//46
f 52//52 56//56 2//2
f 2//2 56//56 57//57
f 2//2 57//57 4//4
f 4//4 57//57 58//58
f 4//4 58//58 34//34
f 8//8 10//10 7//7
f 7//7 10//10 39//39
f 21//21 35//35 22//22
f 22//22 35//35 34//34
f 22//22 34//34 23//23
f 23//23 34//34 58//58
f 23//23 58//58 24//24
f 24//24 58//58 57//57
f 24//24 57//57 11//11
f 11//11 57//57 56//56
f 11//11 56//56 12//12
f 12//12 56//56 52//52
f 12//12 52//52 13//13
f 13//13 52//52 51//51
f 13//13 51//51 14//14
f 14//14 51//51 50//50
f 14//14 50//50 15//15
f 15//15 50//50 49//49
f 15//15 49//49 16//16
f 16//16 49//49 48//48
f 16//16 48//48 17//17
f 17//17 48//48 47//47
f 17//17 47//47 31//31
f 31//31 47//47 46//46
f 31//31 46//46 32//32
f 32//32 46//46 55//55
f 32//32 55//55 33//33
f 33//33 55//55 54//54
f 33//33 54//54 20//20
f 20//20 54//54 53//53
f 20//20 53//53 19//19
f 19//19 53//53 45//45
f 19//19 45//45 18//18
f 18//18 45//45 44//44
f 18//18 44//44 25//25
f 25//25 44//44 43//43
f 25//25 43//43 26//26
f 26//26 43//43 38//38
f 26//26 38//38 27//27
f 27//27 38//38 37//37
f 27//27 37//37 28//28
f 28//28 37//37 36//36
f 28//28 36//36 29//29
f 29//29 36//36 42//42
f 29//29 42//42 30//30
f 30//30 42//42 41//41
f 30//30 41//41 9//9
f 9//9 41//41 40//40
f 9//9 40//40 10//10
f 10//10 40//40 39//39
f 21//21 3//3 35//35
f 35//35 3//3 4//4
# 112 faces, 0 coords texture

# End of File
