####
#
# OBJ File Generated by Meshlab
#
####
# Object pipe_hole_4cm.obj
#
# Vertices: 88
# Faces: 176
#
####
vn -0.668045 0.164658 0.725675
v 0.069419 0.045214 0.010000
vn -0.632980 0.269688 0.725675
v 0.068400 0.042161 0.010000
vn 0.577350 -0.577350 0.577350
v 0.100000 0.000000 0.010000
vn -0.581523 0.367733 0.725675
v 0.066904 0.039311 0.010000
vn -0.515004 0.456253 0.725675
v 0.064970 0.036738 0.010000
vn -0.435146 0.532957 0.725675
v 0.062649 0.034508 0.010000
vn -0.344019 0.595858 0.725675
v 0.060000 0.032679 0.010000
vn -0.243982 0.643327 0.725675
v 0.057092 0.031300 0.010000
vn -0.137625 0.674133 0.725675
v 0.054001 0.030404 0.010000
vn -0.027704 0.687480 0.725675
v 0.050805 0.030016 0.010000
vn -0.577349 -0.577349 0.577352
v 0.000000 0.000000 0.010000
vn 0.082934 0.683021 0.725675
v 0.047589 0.030146 0.010000
vn 0.191424 0.660873 0.725675
v 0.044436 0.030790 0.010000
vn 0.294957 0.621608 0.725675
v 0.041426 0.031931 0.010000
vn 0.390850 0.566244 0.725675
v 0.038639 0.033540 0.010000
vn 0.609227 0.319747 0.725675
v 0.032291 0.040706 0.010000
vn 0.652629 0.217879 0.725675
v 0.031029 0.043667 0.010000
vn 0.476620 0.496214 0.725675
v 0.036146 0.035576 0.010000
vn 0.550047 0.413334 0.725675
v 0.034011 0.037985 0.010000
vn -0.344019 -0.595858 0.725675
v 0.060000 0.067321 0.010000
vn -0.435146 -0.532957 0.725675
v 0.062649 0.065492 0.010000
vn 0.577351 0.577351 0.577349
v 0.100000 0.100000 0.010000
vn -0.515004 -0.456253 0.725675
v 0.064970 0.063262 0.010000
vn -0.027705 -0.687480 0.725675
v 0.050805 0.069984 0.010000
vn -0.137625 -0.674133 0.725675
v 0.054001 0.069596 0.010000
vn -0.243981 -0.643327 0.725675
v 0.057092 0.068700 0.010000
vn -0.581523 -0.367733 0.725675
v 0.066904 0.060689 0.010000
vn -0.632980 -0.269688 0.725675
v 0.068400 0.057839 0.010000
vn -0.668045 -0.164659 0.725675
v 0.069419 0.054786 0.010000
vn 0.679128 0.110369 0.725675
v 0.030259 0.046792 0.010000
vn 0.688038 -0.000000 0.725675
v 0.030000 0.050000 0.010000
vn -0.577349 0.577349 0.577353
v 0.000000 0.100000 0.010000
vn 0.679128 -0.110369 0.725675
v 0.030259 0.053208 0.010000
vn 0.652629 -0.217879 0.725675
v 0.031029 0.056333 0.010000
vn 0.082933 -0.683021 0.725675
v 0.047589 0.069854 0.010000
vn 0.191424 -0.660873 0.725675
v 0.044436 0.069210 0.010000
vn -0.689474 -0.069659 0.720953
v 0.069935 0.051609 0.010000
vn -0.697810 0.000000 0.716283
v 0.070000 0.050000 0.010000
vn -0.689474 0.069659 0.720953
v 0.069935 0.048391 0.010000
vn 0.609227 -0.319747 0.725675
v 0.032291 0.059294 0.010000
vn 0.550047 -0.413334 0.725675
v 0.034011 0.062015 0.010000
vn 0.476621 -0.496215 0.725675
v 0.036146 0.064424 0.010000
vn 0.390850 -0.566244 0.725675
v 0.038639 0.066460 0.010000
vn 0.294957 -0.621608 0.725675
v 0.041426 0.068069 0.010000
vn -0.243982 0.643327 -0.725675
v 0.057092 0.031300 0.000000
vn 0.577350 -0.577350 -0.577351
v 0.100000 0.000000 0.000000
vn -0.137625 0.674133 -0.725675
v 0.054001 0.030404 0.000000
vn -0.027704 0.687480 -0.725675
v 0.050805 0.030016 0.000000
vn -0.577349 -0.577349 -0.577353
v 0.000000 0.000000 0.000000
vn 0.679128 0.110369 -0.725675
v 0.030259 0.046792 0.000000
vn 0.652629 0.217879 -0.725675
v 0.031029 0.043667 0.000000
vn 0.609227 0.319747 -0.725675
v 0.032291 0.040706 0.000000
vn 0.550047 0.413334 -0.725675
v 0.034011 0.037985 0.000000
vn 0.476620 0.496214 -0.725675
v 0.036146 0.035576 0.000000
vn 0.082934 0.683021 -0.725675
v 0.047589 0.030146 0.000000
vn 0.191424 0.660873 -0.725675
v 0.044436 0.030790 0.000000
vn -0.344019 0.595858 -0.725675
v 0.060000 0.032679 0.000000
vn -0.435146 0.532957 -0.725675
v 0.062649 0.034508 0.000000
vn -0.515004 0.456253 -0.725675
v 0.064970 0.036738 0.000000
vn 0.390850 0.566244 -0.725675
v 0.038639 0.033540 0.000000
vn 0.294957 0.621608 -0.725675
v 0.041426 0.031931 0.000000
vn -0.668045 -0.164659 -0.725675
v 0.069419 0.054786 0.000000
vn -0.632980 -0.269688 -0.725675
v 0.068400 0.057839 0.000000
vn 0.577351 0.577351 -0.577349
v 0.100000 0.100000 0.000000
vn -0.581523 0.367733 -0.725675
v 0.066904 0.039311 0.000000
vn -0.632981 0.269688 -0.725675
v 0.068400 0.042161 0.000000
vn -0.668045 0.164658 -0.725675
v 0.069419 0.045214 0.000000
vn 0.082933 -0.683021 -0.725675
v 0.047589 0.069854 0.000000
vn -0.577349 0.577349 -0.577352
v 0.000000 0.100000 0.000000
vn -0.027705 -0.687480 -0.725675
v 0.050805 0.069984 0.000000
vn -0.137625 -0.674133 -0.725675
v 0.054001 0.069596 0.000000
vn -0.581523 -0.367733 -0.725675
v 0.066904 0.060689 0.000000
vn -0.515004 -0.456253 -0.725675
v 0.064970 0.063262 0.000000
vn -0.435146 -0.532957 -0.725675
v 0.062649 0.065492 0.000000
vn -0.344019 -0.595858 -0.725675
v 0.060000 0.067321 0.000000
vn -0.243981 -0.643327 -0.725675
v 0.057092 0.068700 0.000000
vn 0.191424 -0.660873 -0.725675
v 0.044436 0.069210 0.000000
vn 0.294957 -0.621608 -0.725675
v 0.041426 0.068069 0.000000
vn 0.390850 -0.566244 -0.725675
v 0.038639 0.066460 0.000000
vn 0.476621 -0.496215 -0.725675
v 0.036146 0.064424 0.000000
vn 0.550047 -0.413334 -0.725675
v 0.034011 0.062015 0.000000
vn 0.609227 -0.319747 -0.725675
v 0.032291 0.059294 0.000000
vn 0.652629 -0.217879 -0.725675
v 0.031029 0.056333 0.000000
vn 0.679128 -0.110369 -0.725675
v 0.030259 0.053208 0.000000
vn 0.688038 0.000000 -0.725675
v 0.030000 0.050000 0.000000
vn -0.689474 0.069659 -0.720953
v 0.069935 0.048391 0.000000
vn -0.697810 0.000000 -0.716283
v 0.070000 0.050000 0.000000
vn -0.689474 -0.069659 -0.720953
v 0.069935 0.051609 0.000000
# 88 vertices, 0 vertices normals

f 1//1 2//2 3//3
f 3//3 2//2 4//4
f 3//3 4//4 5//5
f 5//5 6//6 3//3
f 3//3 6//6 7//7
f 3//3 7//7 8//8
f 8//8 9//9 3//3
f 3//3 9//9 10//10
f 3//3 10//10 11//11
f 11//11 10//10 12//12
f 12//12 13//13 11//11
f 11//11 13//13 14//14
f 11//11 14//14 15//15
f 11//11 16//16 17//17
f 15//15 18//18 11//11
f 11//11 18//18 19//19
f 11//11 19//19 16//16
f 20//20 21//21 22//22
f 22//22 21//21 23//23
f 24//24 25//25 22//22
f 22//22 25//25 26//26
f 22//22 26//26 20//20
f 23//23 27//27 22//22
f 22//22 27//27 28//28
f 22//22 28//28 29//29
f 17//17 30//30 11//11
f 11//11 30//30 31//31
f 11//11 31//31 32//32
f 32//32 31//31 33//33
f 32//32 33//33 34//34
f 24//24 22//22 35//35
f 35//35 22//22 32//32
f 35//35 32//32 36//36
f 29//29 37//37 22//22
f 22//22 37//37 38//38
f 22//22 38//38 3//3
f 3//3 38//38 39//39
f 3//3 39//39 1//1
f 34//34 40//40 32//32
f 32//32 40//40 41//41
f 32//32 41//41 42//42
f 42//42 43//43 32//32
f 32//32 43//43 44//44
f 32//32 44//44 36//36
f 45//45 46//46 47//47
f 47//47 46//46 48//48
f 49//49 50//50 51//51
f 51//51 52//52 49//49
f 49//49 52//52 53//53
f 49//49 53//53 54//54
f 48//48 46//46 55//55
f 55//55 46//46 49//49
f 55//55 49//49 56//56
f 45//45 57//57 46//46
f 46//46 57//57 58//58
f 46//46 58//58 59//59
f 54//54 60//60 49//49
f 49//49 60//60 61//61
f 49//49 61//61 56//56
f 62//62 63//63 64//64
f 59//59 65//65 46//46
f 46//46 65//65 66//66
f 46//46 66//66 67//67
f 68//68 69//69 70//70
f 70//70 69//69 64//64
f 70//70 64//64 71//71
f 63//63 72//72 64//64
f 64//64 72//72 73//73
f 64//64 73//73 74//74
f 74//74 75//75 64//64
f 64//64 75//75 76//76
f 64//64 76//76 71//71
f 68//68 77//77 69//69
f 69//69 77//77 78//78
f 69//69 78//78 79//79
f 79//79 80//80 69//69
f 69//69 80//80 81//81
f 69//69 81//81 82//82
f 82//82 83//83 69//69
f 69//69 83//83 84//84
f 69//69 84//84 49//49
f 49//49 84//84 85//85
f 49//49 85//85 50//50
f 67//67 86//86 46//46
f 46//46 86//86 87//87
f 46//46 87//87 64//64
f 64//64 87//87 88//88
f 64//64 88//88 62//62
f 22//22 3//3 64//64
f 64//64 3//3 46//46
f 32//32 22//22 69//69
f 69//69 22//22 64//64
f 11//11 32//32 49//49
f 49//49 32//32 69//69
f 3//3 11//11 46//46
f 46//46 11//11 49//49
f 31//31 85//85 33//33
f 33//33 85//85 84//84
f 33//33 84//84 34//34
f 34//34 84//84 83//83
f 34//34 83//83 40//40
f 40//40 83//83 82//82
f 40//40 82//82 41//41
f 41//41 82//82 81//81
f 41//41 81//81 42//42
f 42//42 81//81 80//80
f 42//42 80//80 43//43
f 43//43 80//80 79//79
f 43//43 79//79 44//44
f 44//44 79//79 78//78
f 44//44 78//78 36//36
f 36//36 78//78 77//77
f 36//36 77//77 35//35
f 35//35 77//77 68//68
f 35//35 68//68 24//24
f 24//24 68//68 70//70
f 24//24 70//70 25//25
f 25//25 70//70 71//71
f 25//25 71//71 26//26
f 26//26 71//71 76//76
f 26//26 76//76 20//20
f 20//20 76//76 75//75
f 20//20 75//75 21//21
f 21//21 75//75 74//74
f 21//21 74//74 23//23
f 23//23 74//74 73//73
f 23//23 73//73 27//27
f 27//27 73//73 72//72
f 27//27 72//72 28//28
f 28//28 72//72 63//63
f 28//28 63//63 29//29
f 29//29 63//63 62//62
f 29//29 62//62 37//37
f 37//37 62//62 88//88
f 37//37 88//88 38//38
f 38//38 88//88 87//87
f 38//38 87//87 39//39
f 39//39 87//87 86//86
f 39//39 86//86 1//1
f 1//1 86//86 67//67
f 1//1 67//67 2//2
f 2//2 67//67 66//66
f 2//2 66//66 4//4
f 4//4 66//66 65//65
f 4//4 65//65 5//5
f 5//5 65//65 59//59
f 5//5 59//59 6//6
f 6//6 59//59 58//58
f 6//6 58//58 7//7
f 7//7 58//58 57//57
f 7//7 57//57 8//8
f 8//8 57//57 45//45
f 8//8 45//45 9//9
f 9//9 45//45 47//47
f 9//9 47//47 10//10
f 10//10 47//47 48//48
f 10//10 48//48 12//12
f 12//12 48//48 55//55
f 12//12 55//55 13//13
f 13//13 55//55 56//56
f 13//13 56//56 14//14
f 14//14 56//56 61//61
f 14//14 61//61 15//15
f 15//15 61//61 60//60
f 15//15 60//60 18//18
f 18//18 60//60 54//54
f 18//18 54//54 19//19
f 19//19 54//54 53//53
f 19//19 53//53 16//16
f 16//16 53//53 52//52
f 16//16 52//52 17//17
f 17//17 52//52 51//51
f 17//17 51//51 30//30
f 30//30 51//51 50//50
f 30//30 50//50 31//31
f 31//31 50//50 85//85
# 176 faces, 0 coords texture

# End of File
