####
#
# OBJ File Generated by Meshlab
#
####
# Object pipe_hole_4cm_v2.obj
#
# Vertices: 202
# Faces: 404
#
####
vn 0.387106 0.872708 0.297540
v 0.005000 0.005000 -0.025505
vn 0.387105 -0.872708 0.297540
v 0.005000 -0.005000 -0.025505
vn 0.225739 -0.694115 0.683554
v 0.007840 -0.005000 -0.026261
vn 0.225739 0.694115 0.683554
v 0.007840 0.005000 -0.026261
vn 0.304388 -0.694115 0.652344
v 0.010571 -0.005000 -0.027345
vn 0.304388 0.694115 0.652344
v 0.010571 0.005000 -0.027345
vn 0.378830 -0.694115 0.612121
v 0.013156 -0.005000 -0.028742
vn 0.378829 0.694115 0.612121
v 0.013156 0.005000 -0.028742
vn 0.448038 -0.694115 0.563442
v 0.015560 -0.005000 -0.030432
vn 0.448038 0.694115 0.563442
v 0.015560 0.005000 -0.030432
vn 0.511056 -0.694115 0.506977
v 0.017748 -0.005000 -0.032393
vn 0.511056 0.694115 0.506977
v 0.017748 0.005000 -0.032393
vn 0.567014 -0.694115 0.443509
v 0.019692 -0.005000 -0.034597
vn 0.567014 0.694115 0.443509
v 0.019692 0.005000 -0.034597
vn 0.615137 -0.694115 0.373912
v 0.021363 -0.005000 -0.037014
vn 0.615138 0.694115 0.373912
v 0.021363 0.005000 -0.037014
vn 0.654763 -0.694115 0.299150
v 0.022739 -0.005000 -0.039611
vn 0.654763 0.694115 0.299150
v 0.022739 0.005000 -0.039611
vn 0.685341 -0.694115 0.220254
v 0.023801 -0.005000 -0.042351
vn 0.685341 0.694115 0.220254
v 0.023801 0.005000 -0.042351
vn 0.706451 -0.694115 0.138316
v 0.024534 -0.005000 -0.045196
vn 0.706451 0.694115 0.138316
v 0.024534 0.005000 -0.045196
vn 0.717801 -0.694115 0.054467
v 0.024928 -0.005000 -0.048108
vn 0.717801 0.694115 0.054467
v 0.024928 0.005000 -0.048108
vn 0.719233 -0.694115 -0.030135
v 0.024978 -0.005000 -0.051047
vn 0.719233 0.694115 -0.030135
v 0.024978 0.005000 -0.051047
vn 0.710729 -0.694115 -0.114321
v 0.024683 -0.005000 -0.053970
vn 0.710729 0.694115 -0.114321
v 0.024683 0.005000 -0.053970
vn 0.692405 -0.694115 -0.196926
v 0.024046 -0.005000 -0.056839
vn 0.692405 0.694115 -0.196926
v 0.024046 0.005000 -0.056839
vn 0.664515 -0.694115 -0.276812
v 0.023078 -0.005000 -0.059613
vn 0.664515 0.694115 -0.276812
v 0.023078 0.005000 -0.059613
vn 0.627443 -0.694115 -0.352873
v 0.021790 -0.005000 -0.062255
vn 0.627443 0.694115 -0.352873
v 0.021790 0.005000 -0.062255
vn 0.581704 -0.694115 -0.424058
v 0.020202 -0.005000 -0.064727
vn 0.581704 0.694115 -0.424058
v 0.020202 0.005000 -0.064727
vn 0.527927 -0.694115 -0.489385
v 0.018334 -0.005000 -0.066996
vn 0.527927 0.694115 -0.489385
v 0.018334 0.005000 -0.066996
vn 0.466856 -0.694115 -0.547951
v 0.016213 -0.005000 -0.069030
vn 0.466856 0.694115 -0.547951
v 0.016213 0.005000 -0.069030
vn 0.399335 -0.694115 -0.598946
v 0.013868 -0.005000 -0.070801
vn 0.399335 0.694115 -0.598946
v 0.013868 0.005000 -0.070801
vn 0.326297 -0.694115 -0.641665
v 0.011332 -0.005000 -0.072284
vn 0.326297 0.694115 -0.641665
v 0.011332 0.005000 -0.072284
vn 0.248751 -0.694115 -0.675520
v 0.008639 -0.005000 -0.073460
vn 0.248751 0.694115 -0.675520
v 0.008639 0.005000 -0.073460
vn 0.167768 -0.694115 -0.700042
v 0.005826 -0.005000 -0.074312
vn 0.167768 0.694115 -0.700042
v 0.005826 0.005000 -0.074312
vn 0.084468 -0.694115 -0.714891
v 0.002933 -0.005000 -0.074827
vn 0.084468 0.694115 -0.714891
v 0.002933 0.005000 -0.074827
vn -0.000000 -0.694115 -0.719864
v 0.000000 -0.005000 -0.075000
vn 0.000000 0.694115 -0.719864
v 0.000000 0.005000 -0.075000
vn -0.084468 -0.694115 -0.714891
v -0.002933 -0.005000 -0.074827
vn -0.084468 0.694115 -0.714891
v -0.002933 0.005000 -0.074827
vn -0.167768 -0.694115 -0.700042
v -0.005826 -0.005000 -0.074312
vn -0.167768 0.694115 -0.700042
v -0.005826 0.005000 -0.074312
vn -0.248751 -0.694115 -0.675520
v -0.008639 -0.005000 -0.073460
vn -0.248752 0.694115 -0.675520
v -0.008639 0.005000 -0.073460
vn -0.326297 -0.694115 -0.641665
v -0.011332 -0.005000 -0.072284
vn -0.326297 0.694115 -0.641665
v -0.011332 0.005000 -0.072284
vn -0.399335 -0.694115 -0.598946
v -0.013868 -0.005000 -0.070801
vn -0.399335 0.694115 -0.598946
v -0.013868 0.005000 -0.070801
vn -0.466856 -0.694115 -0.547951
v -0.016213 -0.005000 -0.069030
vn -0.466856 0.694115 -0.547951
v -0.016213 0.005000 -0.069030
vn -0.527927 -0.694115 -0.489385
v -0.018334 -0.005000 -0.066996
vn -0.527927 0.694115 -0.489385
v -0.018334 0.005000 -0.066996
vn -0.581704 -0.694115 -0.424058
v -0.020202 -0.005000 -0.064727
vn -0.581704 0.694115 -0.424058
v -0.020202 0.005000 -0.064727
vn -0.627443 -0.694115 -0.352873
v -0.021790 -0.005000 -0.062255
vn -0.627443 0.694115 -0.352873
v -0.021790 0.005000 -0.062255
vn -0.664515 -0.694115 -0.276812
v -0.023078 -0.005000 -0.059613
vn -0.664515 0.694115 -0.276812
v -0.023078 0.005000 -0.059613
vn -0.692405 -0.694115 -0.196927
v -0.024046 -0.005000 -0.056839
vn -0.692405 0.694115 -0.196927
v -0.024046 0.005000 -0.056839
vn -0.710729 -0.694115 -0.114320
v -0.024683 -0.005000 -0.053970
vn -0.710729 0.694115 -0.114320
v -0.024683 0.005000 -0.053970
vn -0.719233 -0.694115 -0.030135
v -0.024978 -0.005000 -0.051047
vn -0.719233 0.694115 -0.030135
v -0.024978 0.005000 -0.051047
vn -0.717801 -0.694115 0.054467
v -0.024928 -0.005000 -0.048108
vn -0.717801 0.694115 0.054467
v -0.024928 0.005000 -0.048108
vn -0.706451 -0.694115 0.138316
v -0.024534 -0.005000 -0.045196
vn -0.706451 0.694115 0.138316
v -0.024534 0.005000 -0.045196
vn -0.685341 -0.694115 0.220255
v -0.023801 -0.005000 -0.042351
vn -0.685341 0.694115 0.220255
v -0.023801 0.005000 -0.042351
vn -0.654763 -0.694115 0.299150
v -0.022739 -0.005000 -0.039611
vn -0.654762 0.694115 0.299150
v -0.022739 0.005000 -0.039611
vn -0.615138 -0.694115 0.373912
v -0.021363 -0.005000 -0.037014
vn -0.615138 0.694115 0.373912
v -0.021363 0.005000 -0.037014
vn -0.567014 -0.694115 0.443509
v -0.019692 -0.005000 -0.034597
vn -0.567014 0.694115 0.443509
v -0.019692 0.005000 -0.034597
vn -0.511056 -0.694115 0.506977
v -0.017748 -0.005000 -0.032393
vn -0.511056 0.694115 0.506977
v -0.017748 0.005000 -0.032393
vn -0.448038 -0.694115 0.563442
v -0.015560 -0.005000 -0.030432
vn -0.448038 0.694115 0.563442
v -0.015560 0.005000 -0.030432
vn -0.378829 -0.694115 0.612121
v -0.013156 -0.005000 -0.028742
vn -0.378829 0.694115 0.612121
v -0.013156 0.005000 -0.028742
vn -0.304387 -0.694115 0.652344
v -0.010571 -0.005000 -0.027345
vn -0.304387 0.694115 0.652344
v -0.010571 0.005000 -0.027345
vn -0.225740 -0.694115 0.683554
v -0.007840 -0.005000 -0.026261
vn -0.225740 0.694115 0.683554
v -0.007840 0.005000 -0.026261
vn -0.387105 -0.872708 0.297540
v -0.005000 -0.005000 -0.025505
vn -0.387105 0.872708 0.297540
v -0.005000 0.005000 -0.025505
vn -0.577350 0.577350 0.577350
v -0.005000 0.005000 0.000000
vn -0.577350 -0.577350 0.577350
v -0.005000 -0.005000 0.000000
vn 0.577350 0.577350 0.577350
v 0.005000 0.005000 0.000000
vn 0.577350 -0.577350 0.577350
v 0.005000 -0.005000 0.000000
vn 0.000000 0.722128 0.691759
v 0.000000 0.005000 -0.070000
vn 0.000000 -0.722128 0.691759
v 0.000000 -0.005000 -0.070000
vn -0.090293 0.722128 0.685841
v 0.002611 0.005000 -0.069829
vn -0.090293 -0.722128 0.685841
v 0.002611 -0.005000 -0.069829
vn -0.179040 0.722129 0.668188
v 0.005176 0.005000 -0.069319
vn -0.179040 -0.722129 0.668188
v 0.005176 -0.005000 -0.069319
vn -0.264725 0.722128 0.639102
v 0.007654 0.005000 -0.068478
vn -0.264725 -0.722128 0.639102
v 0.007654 -0.005000 -0.068478
vn -0.345879 0.722128 0.599081
v 0.010000 0.005000 -0.067321
vn -0.345879 -0.722128 0.599081
v 0.010000 -0.005000 -0.067321
vn -0.421116 0.722128 0.548809
v 0.012175 0.005000 -0.065867
vn -0.421116 -0.722129 0.548809
v 0.012175 -0.005000 -0.065867
vn -0.489148 0.722128 0.489148
v 0.014142 0.005000 -0.064142
vn -0.489148 -0.722128 0.489148
v 0.014142 -0.005000 -0.064142
vn -0.548809 0.722129 0.421116
v 0.015867 0.005000 -0.062175
vn -0.548809 -0.722129 0.421116
v 0.015867 -0.005000 -0.062175
vn -0.599081 0.722128 0.345880
v 0.017321 0.005000 -0.060000
vn -0.599081 -0.722128 0.345880
v 0.017321 -0.005000 -0.060000
vn -0.639102 0.722129 0.264725
v 0.018478 0.005000 -0.057654
vn -0.639102 -0.722129 0.264725
v 0.018478 -0.005000 -0.057654
vn -0.668188 0.722128 0.179040
v 0.019319 0.005000 -0.055176
vn -0.668188 -0.722128 0.179040
v 0.019319 -0.005000 -0.055176
vn -0.685841 0.722128 0.090293
v 0.019829 0.005000 -0.052611
vn -0.685841 -0.722128 0.090293
v 0.019829 -0.005000 -0.052611
vn -0.691759 0.722129 0.000000
v 0.020000 0.005000 -0.050000
vn -0.691759 -0.722129 0.000000
v 0.020000 -0.005000 -0.050000
vn -0.685841 0.722128 -0.090293
v 0.019829 0.005000 -0.047389
vn -0.685841 -0.722128 -0.090293
v 0.019829 -0.005000 -0.047389
vn -0.668188 0.722128 -0.179040
v 0.019319 0.005000 -0.044824
vn -0.668188 -0.722128 -0.179040
v 0.019319 -0.005000 -0.044824
vn -0.639102 0.722129 -0.264725
v 0.018478 0.005000 -0.042346
vn -0.639102 -0.722129 -0.264725
v 0.018478 -0.005000 -0.042346
vn -0.599081 0.722128 -0.345880
v 0.017321 0.005000 -0.040000
vn -0.599081 -0.722128 -0.345880
v 0.017321 -0.005000 -0.040000
vn -0.548809 0.722129 -0.421116
v 0.015867 0.005000 -0.037825
vn -0.548809 -0.722129 -0.421116
v 0.015867 -0.005000 -0.037825
vn -0.489148 0.722128 -0.489148
v 0.014142 0.005000 -0.035858
vn -0.489148 -0.722128 -0.489148
v 0.014142 -0.005000 -0.035858
vn -0.421116 0.722129 -0.548809
v 0.012175 0.005000 -0.034133
vn -0.421116 -0.722129 -0.548809
v 0.012175 -0.005000 -0.034133
vn -0.345880 0.722128 -0.599081
v 0.010000 0.005000 -0.032679
vn -0.345880 -0.722128 -0.599081
v 0.010000 -0.005000 -0.032679
vn -0.264725 0.722129 -0.639102
v 0.007654 0.005000 -0.031522
vn -0.264725 -0.722129 -0.639102
v 0.007654 -0.005000 -0.031522
vn -0.179040 0.722128 -0.668188
v 0.005176 0.005000 -0.030681
vn -0.179040 -0.722128 -0.668188
v 0.005176 -0.005000 -0.030681
vn -0.090293 0.722128 -0.685841
v 0.002611 0.005000 -0.030171
vn -0.090293 -0.722128 -0.685841
v 0.002611 -0.005000 -0.030171
vn 0.000000 0.722129 -0.691759
v 0.000000 0.005000 -0.030000
vn 0.000000 -0.722129 -0.691759
v 0.000000 -0.005000 -0.030000
vn 0.090293 0.722128 -0.685841
v -0.002611 0.005000 -0.030171
vn 0.090293 -0.722128 -0.685841
v -0.002611 -0.005000 -0.030171
vn 0.179040 0.722128 -0.668188
v -0.005176 0.005000 -0.030681
vn 0.179040 -0.722128 -0.668188
v -0.005176 -0.005000 -0.030681
vn 0.264725 0.722129 -0.639102
v -0.007654 0.005000 -0.031522
vn 0.264725 -0.722129 -0.639102
v -0.007654 -0.005000 -0.031522
vn 0.345880 0.722128 -0.599081
v -0.010000 0.005000 -0.032679
vn 0.345880 -0.722128 -0.599081
v -0.010000 -0.005000 -0.032679
vn 0.421116 0.722129 -0.548809
v -0.012175 0.005000 -0.034133
vn 0.421116 -0.722129 -0.548809
v -0.012175 -0.005000 -0.034133
vn 0.489148 0.722128 -0.489148
v -0.014142 0.005000 -0.035858
vn 0.489148 -0.722128 -0.489148
v -0.014142 -0.005000 -0.035858
vn 0.548809 0.722129 -0.421116
v -0.015867 0.005000 -0.037825
vn 0.548809 -0.722129 -0.421116
v -0.015867 -0.005000 -0.037825
vn 0.599081 0.722128 -0.345879
v -0.017321 0.005000 -0.040000
vn 0.599081 -0.722128 -0.345879
v -0.017321 -0.005000 -0.040000
vn 0.639102 0.722128 -0.264725
v -0.018478 0.005000 -0.042346
vn 0.639102 -0.722128 -0.264725
v -0.018478 -0.005000 -0.042346
vn 0.668188 0.722129 -0.179040
v -0.019319 0.005000 -0.044824
vn 0.668188 -0.722129 -0.179040
v -0.019319 -0.005000 -0.044824
vn 0.685841 0.722128 -0.090293
v -0.019829 0.005000 -0.047389
vn 0.685841 -0.722129 -0.090293
v -0.019829 -0.005000 -0.047389
vn 0.691759 0.722128 0.000000
v -0.020000 0.005000 -0.050000
vn 0.691759 -0.722128 0.000000
v -0.020000 -0.005000 -0.050000
vn 0.685841 0.722128 0.090293
v -0.019829 0.005000 -0.052611
vn 0.685841 -0.722128 0.090293
v -0.019829 -0.005000 -0.052611
vn 0.668188 0.722129 0.179040
v -0.019319 0.005000 -0.055176
vn 0.668188 -0.722129 0.179040
v -0.019319 -0.005000 -0.055176
vn 0.639102 0.722128 0.264725
v -0.018478 0.005000 -0.057654
vn 0.639102 -0.722129 0.264725
v -0.018478 -0.005000 -0.057654
vn 0.599081 0.722128 0.345879
v -0.017321 0.005000 -0.060000
vn 0.599081 -0.722128 0.345879
v -0.017321 -0.005000 -0.060000
vn 0.548809 0.722129 0.421116
v -0.015867 0.005000 -0.062175
vn 0.548809 -0.722129 0.421116
v -0.015867 -0.005000 -0.062175
vn 0.489148 0.722128 0.489148
v -0.014142 0.005000 -0.064142
vn 0.489148 -0.722128 0.489148
v -0.014142 -0.005000 -0.064142
vn 0.421116 0.722129 0.548809
v -0.012175 0.005000 -0.065867
vn 0.421116 -0.722129 0.548809
v -0.012175 -0.005000 -0.065867
vn 0.345879 0.722128 0.599081
v -0.010000 0.005000 -0.067321
vn 0.345879 -0.722128 0.599081
v -0.010000 -0.005000 -0.067321
vn 0.264725 0.722128 0.639102
v -0.007654 0.005000 -0.068478
vn 0.264725 -0.722128 0.639102
v -0.007654 -0.005000 -0.068478
vn 0.179040 0.722129 0.668188
v -0.005176 0.005000 -0.069319
vn 0.179040 -0.722129 0.668188
v -0.005176 -0.005000 -0.069319
vn 0.090293 0.722128 0.685841
v -0.002611 0.005000 -0.069829
vn 0.090293 -0.722129 0.685841
v -0.002611 -0.005000 -0.069829
# 202 vertices, 0 vertices normals

f 1//1 2//2 3//3
f 1//1 3//3 4//4
f 4//4 3//3 5//5
f 4//4 5//5 6//6
f 6//6 5//5 7//7
f 6//6 7//7 8//8
f 8//8 7//7 9//9
f 8//8 9//9 10//10
f 10//10 9//9 11//11
f 10//10 11//11 12//12
f 12//12 11//11 13//13
f 12//12 13//13 14//14
f 14//14 13//13 15//15
f 14//14 15//15 16//16
f 16//16 15//15 17//17
f 16//16 17//17 18//18
f 18//18 17//17 19//19
f 18//18 19//19 20//20
f 20//20 19//19 21//21
f 20//20 21//21 22//22
f 22//22 21//21 23//23
f 22//22 23//23 24//24
f 24//24 23//23 25//25
f 24//24 25//25 26//26
f 26//26 25//25 27//27
f 26//26 27//27 28//28
f 28//28 27//27 29//29
f 28//28 29//29 30//30
f 30//30 29//29 31//31
f 30//30 31//31 32//32
f 32//32 31//31 33//33
f 32//32 33//33 34//34
f 34//34 33//33 35//35
f 34//34 35//35 36//36
f 36//36 35//35 37//37
f 36//36 37//37 38//38
f 38//38 37//37 39//39
f 38//38 39//39 40//40
f 40//40 39//39 41//41
f 40//40 41//41 42//42
f 42//42 41//41 43//43
f 42//42 43//43 44//44
f 44//44 43//43 45//45
f 44//44 45//45 46//46
f 46//46 45//45 47//47
f 46//46 47//47 48//48
f 48//48 47//47 49//49
f 48//48 49//49 50//50
f 50//50 49//49 51//51
f 50//50 51//51 52//52
f 52//52 51//51 53//53
f 52//52 53//53 54//54
f 54//54 53//53 55//55
f 54//54 55//55 56//56
f 56//56 55//55 57//57
f 56//56 57//57 58//58
f 58//58 57//57 59//59
f 58//58 59//59 60//60
f 60//60 59//59 61//61
f 60//60 61//61 62//62
f 62//62 61//61 63//63
f 62//62 63//63 64//64
f 64//64 63//63 65//65
f 64//64 65//65 66//66
f 66//66 65//65 67//67
f 66//66 67//67 68//68
f 68//68 67//67 69//69
f 68//68 69//69 70//70
f 70//70 69//69 71//71
f 70//70 71//71 72//72
f 72//72 71//71 73//73
f 72//72 73//73 74//74
f 74//74 73//73 75//75
f 74//74 75//75 76//76
f 76//76 75//75 77//77
f 76//76 77//77 78//78
f 78//78 77//77 79//79
f 78//78 79//79 80//80
f 80//80 79//79 81//81
f 80//80 81//81 82//82
f 82//82 81//81 83//83
f 82//82 83//83 84//84
f 84//84 83//83 85//85
f 84//84 85//85 86//86
f 86//86 85//85 87//87
f 86//86 87//87 88//88
f 88//88 87//87 89//89
f 88//88 89//89 90//90
f 90//90 89//89 91//91
f 90//90 91//91 92//92
f 92//92 91//91 93//93
f 92//92 93//93 94//94
f 94//94 93//93 95//95
f 94//94 95//95 96//96
f 96//96 95//95 97//97
f 96//96 97//97 98//98
f 98//98 97//97 99//99
f 98//98 99//99 100//100
f 100//100 99//99 101//101
f 100//100 101//101 102//102
f 103//103 102//102 104//104
f 104//104 102//102 101//101
f 105//105 103//103 106//106
f 106//106 103//103 104//104
f 1//1 105//105 2//2
f 2//2 105//105 106//106
f 107//107 108//108 109//109
f 109//109 108//108 110//110
f 109//109 110//110 111//111
f 111//111 110//110 112//112
f 111//111 112//112 113//113
f 113//113 112//112 114//114
f 113//113 114//114 115//115
f 115//115 114//114 116//116
f 115//115 116//116 117//117
f 117//117 116//116 118//118
f 117//117 118//118 119//119
f 119//119 118//118 120//120
f 119//119 120//120 121//121
f 121//121 120//120 122//122
f 121//121 122//122 123//123
f 123//123 122//122 124//124
f 123//123 124//124 125//125
f 125//125 124//124 126//126
f 125//125 126//126 127//127
f 127//127 126//126 128//128
f 127//127 128//128 129//129
f 129//129 128//128 130//130
f 129//129 130//130 131//131
f 131//131 130//130 132//132
f 131//131 132//132 133//133
f 133//133 132//132 134//134
f 133//133 134//134 135//135
f 135//135 134//134 136//136
f 135//135 136//136 137//137
f 137//137 136//136 138//138
f 137//137 138//138 139//139
f 139//139 138//138 140//140
f 139//139 140//140 141//141
f 141//141 140//140 142//142
f 141//141 142//142 143//143
f 143//143 142//142 144//144
f 143//143 144//144 145//145
f 145//145 144//144 146//146
f 145//145 146//146 147//147
f 147//147 146//146 148//148
f 147//147 148//148 149//149
f 149//149 148//148 150//150
f 149//149 150//150 151//151
f 151//151 150//150 152//152
f 151//151 152//152 153//153
f 153//153 152//152 154//154
f 153//153 154//154 155//155
f 155//155 154//154 156//156
f 155//155 156//156 157//157
f 157//157 156//156 158//158
f 157//157 158//158 159//159
f 159//159 158//158 160//160
f 159//159 160//160 161//161
f 161//161 160//160 162//162
f 161//161 162//162 163//163
f 163//163 162//162 164//164
f 163//163 164//164 165//165
f 165//165 164//164 166//166
f 165//165 166//166 167//167
f 167//167 166//166 168//168
f 167//167 168//168 169//169
f 169//169 168//168 170//170
f 169//169 170//170 171//171
f 171//171 170//170 172//172
f 171//171 172//172 173//173
f 173//173 172//172 174//174
f 173//173 174//174 175//175
f 175//175 174//174 176//176
f 175//175 176//176 177//177
f 177//177 176//176 178//178
f 177//177 178//178 179//179
f 179//179 178//178 180//180
f 179//179 180//180 181//181
f 181//181 180//180 182//182
f 181//181 182//182 183//183
f 183//183 182//182 184//184
f 183//183 184//184 185//185
f 185//185 184//184 186//186
f 185//185 186//186 187//187
f 187//187 186//186 188//188
f 187//187 188//188 189//189
f 189//189 188//188 190//190
f 189//189 190//190 191//191
f 191//191 190//190 192//192
f 191//191 192//192 193//193
f 193//193 192//192 194//194
f 193//193 194//194 195//195
f 195//195 194//194 196//196
f 195//195 196//196 197//197
f 197//197 196//196 198//198
f 197//197 198//198 199//199
f 199//199 198//198 200//200
f 199//199 200//200 201//201
f 201//201 200//200 202//202
f 201//201 202//202 107//107
f 107//107 202//202 108//108
f 102//102 103//103 105//105
f 149//149 1//1 147//147
f 147//147 1//1 145//145
f 149//149 151//151 1//1
f 1//1 151//151 153//153
f 1//1 153//153 155//155
f 6//6 8//8 143//143
f 145//145 1//1 143//143
f 143//143 1//1 4//4
f 143//143 4//4 6//6
f 177//177 82//82 175//175
f 175//175 82//82 84//84
f 175//175 84//84 173//173
f 173//173 84//84 86//86
f 173//173 86//86 171//171
f 171//171 86//86 88//88
f 171//171 88//88 169//169
f 169//169 88//88 90//90
f 169//169 90//90 167//167
f 167//167 90//90 92//92
f 167//167 92//92 165//165
f 165//165 92//92 94//94
f 165//165 94//94 163//163
f 163//163 94//94 96//96
f 163//163 96//96 161//161
f 161//161 96//96 98//98
f 161//161 98//98 159//159
f 159//159 98//98 100//100
f 159//159 100//100 157//157
f 157//157 100//100 102//102
f 157//157 102//102 155//155
f 155//155 102//102 105//105
f 155//155 105//105 1//1
f 195//195 62//62 193//193
f 193//193 62//62 64//64
f 193//193 64//64 191//191
f 191//191 64//64 66//66
f 191//191 66//66 189//189
f 189//189 66//66 68//68
f 189//189 68//68 187//187
f 187//187 68//68 70//70
f 187//187 70//70 185//185
f 185//185 70//70 72//72
f 185//185 72//72 183//183
f 183//183 72//72 74//74
f 183//183 74//74 181//181
f 181//181 74//74 76//76
f 181//181 76//76 179//179
f 179//179 76//76 78//78
f 179//179 78//78 177//177
f 177//177 78//78 80//80
f 177//177 80//80 82//82
f 8//8 10//10 143//143
f 143//143 10//10 12//12
f 143//143 12//12 141//141
f 141//141 12//12 14//14
f 141//141 14//14 139//139
f 139//139 14//14 16//16
f 139//139 16//16 137//137
f 137//137 16//16 18//18
f 137//137 18//18 135//135
f 117//117 42//42 115//115
f 115//115 42//42 44//44
f 115//115 44//44 113//113
f 113//113 44//44 46//46
f 113//113 46//46 111//111
f 111//111 46//46 48//48
f 111//111 48//48 109//109
f 109//109 48//48 50//50
f 109//109 50//50 107//107
f 107//107 50//50 52//52
f 107//107 52//52 201//201
f 201//201 52//52 54//54
f 201//201 54//54 199//199
f 199//199 54//54 56//56
f 199//199 56//56 197//197
f 197//197 56//56 58//58
f 197//197 58//58 195//195
f 195//195 58//58 60//60
f 195//195 60//60 62//62
f 18//18 20//20 135//135
f 135//135 20//20 22//22
f 135//135 22//22 133//133
f 133//133 22//22 24//24
f 133//133 24//24 131//131
f 131//131 24//24 26//26
f 131//131 26//26 129//129
f 129//129 26//26 28//28
f 129//129 28//28 127//127
f 127//127 28//28 30//30
f 127//127 30//30 125//125
f 125//125 30//30 32//32
f 125//125 32//32 123//123
f 123//123 32//32 34//34
f 123//123 34//34 121//121
f 121//121 34//34 36//36
f 121//121 36//36 119//119
f 119//119 36//36 38//38
f 119//119 38//38 117//117
f 117//117 38//38 40//40
f 117//117 40//40 42//42
f 158//158 2//2 160//160
f 160//160 2//2 162//162
f 158//158 156//156 2//2
f 2//2 156//156 154//154
f 2//2 154//154 3//3
f 3//3 154//154 152//152
f 3//3 152//152 5//5
f 5//5 152//152 150//150
f 5//5 150//150 7//7
f 7//7 150//150 148//148
f 7//7 148//148 9//9
f 9//9 148//148 146//146
f 9//9 146//146 11//11
f 11//11 146//146 144//144
f 11//11 144//144 13//13
f 13//13 144//144 142//142
f 13//13 142//142 15//15
f 15//15 142//142 140//140
f 15//15 140//140 17//17
f 17//17 140//140 138//138
f 17//17 138//138 19//19
f 19//19 138//138 136//136
f 19//19 136//136 21//21
f 21//21 136//136 134//134
f 194//194 61//61 196//196
f 196//196 61//61 59//59
f 196//196 59//59 198//198
f 198//198 59//59 57//57
f 198//198 57//57 200//200
f 200//200 57//57 55//55
f 200//200 55//55 202//202
f 202//202 55//55 53//53
f 202//202 53//53 108//108
f 108//108 53//53 51//51
f 108//108 51//51 110//110
f 110//110 51//51 49//49
f 110//110 49//49 112//112
f 112//112 49//49 47//47
f 112//112 47//47 114//114
f 114//114 47//47 45//45
f 114//114 45//45 116//116
f 176//176 81//81 178//178
f 178//178 81//81 79//79
f 178//178 79//79 180//180
f 180//180 79//79 77//77
f 180//180 77//77 182//182
f 182//182 77//77 75//75
f 182//182 75//75 184//184
f 184//184 75//75 73//73
f 184//184 73//73 186//186
f 186//186 73//73 71//71
f 186//186 71//71 188//188
f 188//188 71//71 69//69
f 188//188 69//69 190//190
f 190//190 69//69 67//67
f 190//190 67//67 192//192
f 192//192 67//67 65//65
f 192//192 65//65 194//194
f 194//194 65//65 63//63
f 194//194 63//63 61//61
f 162//162 97//97 164//164
f 164//164 97//97 95//95
f 164//164 95//95 166//166
f 166//166 95//95 93//93
f 166//166 93//93 168//168
f 168//168 93//93 91//91
f 168//168 91//91 170//170
f 170//170 91//91 89//89
f 170//170 89//89 172//172
f 172//172 89//89 87//87
f 172//172 87//87 174//174
f 174//174 87//87 85//85
f 174//174 85//85 176//176
f 176//176 85//85 83//83
f 176//176 83//83 81//81
f 45//45 43//43 116//116
f 116//116 43//43 41//41
f 116//116 41//41 118//118
f 118//118 41//41 39//39
f 118//118 39//39 120//120
f 120//120 39//39 37//37
f 120//120 37//37 122//122
f 122//122 37//37 35//35
f 122//122 35//35 124//124
f 124//124 35//35 33//33
f 124//124 33//33 126//126
f 126//126 33//33 31//31
f 126//126 31//31 128//128
f 128//128 31//31 29//29
f 128//128 29//29 130//130
f 130//130 29//29 27//27
f 130//130 27//27 132//132
f 132//132 27//27 25//25
f 132//132 25//25 134//134
f 134//134 25//25 23//23
f 134//134 23//23 21//21
f 106//106 104//104 2//2
f 2//2 104//104 101//101
f 2//2 101//101 162//162
f 162//162 101//101 99//99
f 162//162 99//99 97//97
# 404 faces, 0 coords texture

# End of File
