####
#
# OBJ File Generated by Meshlab
#
####
# Object pie5.obj
#
# Vertices: 63
# Faces: 122
#
####
vn -0.184660 0.886063 -0.425199
v -0.013330 0.058681 -0.000005
vn 0.004518 0.213385 0.976958
v -0.000000 0.060000 0.010000
vn 0.282975 0.898938 0.334418
v 0.018247 0.057158 0.010000
vn 0.433200 0.710703 0.554291
v 0.029812 0.052333 0.009996
vn 0.740795 0.486150 0.463553
v 0.050068 0.033586 0.010001
vn 0.467634 0.517570 0.716547
v 0.039609 0.045068 0.010000
vn 0.791304 0.191377 0.580700
v 0.058766 0.012969 0.010000
vn 0.817899 -0.056637 0.572567
v 0.059928 -0.004829 0.010000
vn 0.772229 -0.283223 0.568724
v 0.055735 -0.022754 0.010000
vn 0.488453 -0.744620 0.454923
v 0.033639 -0.050212 0.010000
vn 0.664925 -0.487111 0.566214
v 0.048066 -0.036147 0.010000
vn 0.024440 -0.822699 0.567952
v 0.003324 -0.060034 0.010000
vn 0.217599 -0.798602 0.561147
v 0.017451 -0.057540 0.010000
vn -0.218424 -0.787136 0.576809
v -0.015178 -0.058196 0.010000
vn -0.451962 -0.670279 0.588606
v -0.032050 -0.050882 0.010000
vn -0.737947 -0.473151 0.481210
v -0.050491 -0.033347 0.010000
vn -0.804659 -0.146143 0.575471
v -0.059306 -0.010279 0.010000
vn -0.737544 0.342322 0.582103
v -0.054932 0.025558 0.010000
vn -0.809895 0.079679 0.581138
v -0.059742 0.004624 0.010000
vn -0.529783 0.607524 0.591814
v -0.037493 0.047282 0.010002
vn -0.308997 0.884896 0.348540
v -0.017860 0.057416 0.010024
vn -0.441490 0.719459 -0.536158
v -0.032958 0.050674 -0.000017
vn -0.689380 0.482545 -0.540283
v -0.049846 0.034064 0.000034
vn -0.875983 0.218669 -0.429927
v -0.058724 0.013243 -0.000023
vn -0.846397 -0.013377 -0.532384
v -0.060091 -0.000655 0.000006
vn -0.815606 -0.245947 -0.523734
v -0.057631 -0.017394 -0.000023
vn -0.658885 -0.398326 -0.638128
v -0.051411 -0.031217 -0.000006
vn -0.588512 -0.614126 -0.525835
v -0.040749 -0.044297 -0.000022
vn -0.344926 -0.717721 -0.604899
v -0.027212 -0.053778 -0.000026
vn -0.105962 -0.840193 -0.531835
v -0.008174 -0.059739 -0.000011
vn 0.107219 -0.839827 -0.532160
v 0.006931 -0.059543 0.000000
vn 0.287602 -0.800610 -0.525651
v 0.018678 -0.057177 0.000006
vn 0.416151 -0.649682 -0.636185
v 0.031082 -0.051487 0.000011
vn 0.664039 -0.613141 -0.427914
v 0.045255 -0.039665 -0.000012
vn 0.753840 -0.382249 -0.534425
v 0.054510 -0.025519 0.000025
vn 0.830760 -0.166408 -0.531174
v 0.059148 -0.010782 -0.000027
vn 0.843166 0.073783 -0.532566
v 0.059887 0.006329 -0.000002
vn 0.790508 0.315950 -0.524665
v 0.055753 0.022676 0.000025
vn 0.638851 0.432837 -0.636020
v 0.050162 0.032821 0.000000
vn 0.634051 0.689856 -0.349397
v 0.041076 0.044049 -0.000003
vn 0.384177 0.754361 -0.532304
v 0.027598 0.053434 0.000021
vn 0.191309 0.834452 -0.516808
v 0.015038 0.058223 0.000007
vn 0.020923 0.778075 -0.627823
v 0.003551 0.059820 0.000005
vn -0.080346 -0.329301 -0.940800
v -0.008208 -0.039292 -0.010000
vn -0.101009 -0.202173 -0.974127
v -0.017860 -0.035732 -0.010000
vn -0.172331 -0.211272 -0.962116
v -0.026496 -0.030153 -0.010000
vn -0.222009 -0.159499 -0.961911
v -0.033143 -0.022301 -0.010000
vn -0.254350 -0.097236 -0.962212
v -0.037914 -0.013184 -0.010000
vn -0.271765 -0.023876 -0.962068
v -0.039828 -0.003083 -0.010000
vn -0.286650 0.080983 -0.954606
v -0.038843 0.011008 -0.010001
vn -0.184990 0.189337 -0.964329
v -0.028316 0.028797 -0.010001
vn -0.071242 0.289315 -0.954579
v -0.008957 0.039359 -0.010000
vn 0.029263 0.271574 -0.961973
v 0.004107 0.039735 -0.010000
vn 0.099253 0.252600 -0.962467
v 0.014159 0.037561 -0.010000
vn 0.204761 0.220680 -0.953611
v 0.027757 0.029316 -0.010000
vn 0.239432 0.130080 -0.962160
v 0.035307 0.018799 -0.010000
vn 0.265737 0.058858 -0.962247
v 0.039388 0.008271 -0.010001
vn 0.271171 -0.025795 -0.962185
v 0.039809 -0.005155 -0.010000
vn 0.253589 -0.098356 -0.962299
v 0.037004 -0.015050 -0.010000
vn 0.223413 -0.201741 -0.953618
v 0.029902 -0.027162 -0.010016
vn 0.122758 -0.242837 -0.962269
v 0.017860 -0.035732 -0.010000
vn 0.079916 -0.329836 -0.940650
v 0.010173 -0.038630 -0.010000
vn 0.002334 -0.064201 -0.997934
v 0.002057 -0.039894 -0.010000
# 63 vertices, 0 vertices normals

f 3//3 42//42 2//2
f 2//2 42//42 43//43
f 2//2 4//4 3//3
f 2//2 5//5 6//6
f 2//2 6//6 4//4
f 7//7 5//5 2//2
f 8//8 7//7 2//2
f 9//9 8//8 2//2
f 11//11 9//9 2//2
f 2//2 10//10 11//11
f 13//13 10//10 2//2
f 2//2 12//12 13//13
f 2//2 14//14 12//12
f 2//2 15//15 14//14
f 2//2 16//16 15//15
f 2//2 17//17 16//16
f 18//18 19//19 2//2
f 2//2 19//19 17//17
f 2//2 20//20 18//18
f 21//21 20//20 2//2
f 1//1 21//21 2//2
f 1//1 2//2 43//43
f 1//1 22//22 21//21
f 21//21 22//22 20//20
f 22//22 23//23 20//20
f 20//20 23//23 18//18
f 18//18 23//23 24//24
f 18//18 24//24 19//19
f 19//19 24//24 25//25
f 19//19 25//25 17//17
f 17//17 25//25 26//26
f 17//17 26//26 16//16
f 16//16 26//26 27//27
f 16//16 27//27 28//28
f 16//16 28//28 15//15
f 15//15 28//28 29//29
f 15//15 29//29 14//14
f 14//14 29//29 30//30
f 14//14 30//30 12//12
f 30//30 31//31 12//12
f 12//12 31//31 13//13
f 13//13 31//31 32//32
f 13//13 32//32 10//10
f 32//32 33//33 10//10
f 10//10 33//33 34//34
f 10//10 34//34 11//11
f 11//11 34//34 35//35
f 11//11 35//35 9//9
f 35//35 36//36 9//9
f 9//9 36//36 8//8
f 8//8 36//36 37//37
f 8//8 37//37 7//7
f 7//7 37//37 38//38
f 7//7 38//38 5//5
f 38//38 39//39 5//5
f 5//5 39//39 40//40
f 5//5 40//40 6//6
f 6//6 40//40 4//4
f 4//4 40//40 41//41
f 4//4 41//41 3//3
f 41//41 42//42 3//3
f 30//30 44//44 63//63
f 30//30 29//29 44//44
f 44//44 29//29 45//45
f 45//45 29//29 46//46
f 29//29 28//28 46//46
f 46//46 28//28 47//47
f 28//28 27//27 47//47
f 47//47 27//27 48//48
f 27//27 26//26 48//48
f 48//48 26//26 49//49
f 26//26 25//25 49//49
f 49//49 25//25 50//50
f 25//25 24//24 50//50
f 24//24 23//23 50//50
f 50//50 23//23 51//51
f 51//51 23//23 22//22
f 51//51 22//22 52//52
f 52//52 22//22 1//1
f 52//52 1//1 43//43
f 52//52 43//43 53//53
f 43//43 42//42 53//53
f 53//53 42//42 54//54
f 54//54 42//42 41//41
f 54//54 41//41 55//55
f 55//55 41//41 40//40
f 55//55 40//40 39//39
f 55//55 39//39 56//56
f 39//39 38//38 56//56
f 56//56 38//38 57//57
f 57//57 38//38 37//37
f 57//57 37//37 58//58
f 58//58 37//37 36//36
f 58//58 36//36 59//59
f 36//36 35//35 59//59
f 59//59 35//35 60//60
f 60//60 35//35 34//34
f 60//60 34//34 33//33
f 60//60 33//33 61//61
f 33//33 32//32 61//61
f 61//61 32//32 62//62
f 62//62 32//32 31//31
f 62//62 31//31 63//63
f 63//63 31//31 30//30
f 52//52 53//53 63//63
f 63//63 51//51 52//52
f 63//63 50//50 51//51
f 49//49 50//50 63//63
f 63//63 48//48 49//49
f 63//63 47//47 48//48
f 63//63 46//46 47//47
f 44//44 45//45 63//63
f 63//63 45//45 46//46
f 60//60 61//61 63//63
f 63//63 61//61 62//62
f 63//63 59//59 60//60
f 63//63 58//58 59//59
f 63//63 57//57 58//58
f 55//55 56//56 63//63
f 63//63 56//56 57//57
f 63//63 54//54 55//55
f 63//63 53//53 54//54
# 122 faces, 0 coords texture

# End of File
