####
#
# OBJ File Generated by Meshlab
#
####
# Object pie6.obj
#
# Vertices: 32
# Faces: 60
#
####
vn -0.007095 0.268227 0.963330
v -0.000000 0.060000 0.010000
vn 0.158202 0.904599 -0.395820
v 0.010104 0.059627 0.000024
vn 0.667954 0.476807 0.571395
v 0.050068 0.033586 0.010001
vn 0.436629 0.800164 0.411208
v 0.034943 0.049252 0.010007
vn 0.789383 0.197284 0.581338
v 0.058766 0.012969 0.010000
vn 0.792681 -0.092373 0.602598
v 0.059928 -0.004829 0.010000
vn 0.596259 -0.488597 0.636984
v 0.048016 -0.039413 0.010000
vn 0.120492 -0.751310 0.648857
v 0.009869 -0.059928 0.010000
vn -0.306466 -0.724677 0.617188
v -0.026315 -0.055063 0.010000
vn -0.652029 -0.467771 0.596697
v -0.050491 -0.033347 0.010000
vn -0.724730 0.330106 0.604811
v -0.054932 0.025558 0.010000
vn -0.802226 -0.079780 0.591665
v -0.060822 -0.004473 0.010001
vn -0.534640 0.755750 0.378156
v -0.032563 0.051813 0.010006
vn -0.310947 0.773403 -0.552413
v -0.026217 0.055198 0.000048
vn -0.675712 0.487674 -0.552799
v -0.049846 0.034064 0.000034
vn -0.876371 0.125806 -0.464915
v -0.060245 0.008289 -0.000035
vn -0.754980 -0.312173 -0.576674
v -0.055470 -0.024189 -0.000182
vn -0.537133 -0.713341 -0.450148
v -0.033844 -0.050771 -0.000040
vn -0.088177 -0.816590 -0.570444
v -0.008174 -0.059739 -0.000011
vn 0.418937 -0.758503 -0.499164
v 0.029427 -0.054439 -0.000096
vn 0.752208 -0.304545 -0.584325
v 0.057641 -0.019114 -0.000035
vn 0.838285 0.064041 -0.541459
v 0.059887 0.006329 -0.000002
vn 0.755043 0.374443 -0.538240
v 0.054199 0.026814 -0.000051
vn 0.514227 0.663918 -0.542940
v 0.035981 0.048864 0.000122
vn -0.193074 -0.251635 -0.948368
v -0.027254 -0.031632 -0.010234
vn -0.275258 0.037420 -0.960642
v -0.040265 0.007560 -0.010004
vn -0.177549 0.191150 -0.965369
v -0.028316 0.028797 -0.010001
vn 0.020487 0.287536 -0.957551
v -0.000364 0.042075 -0.010009
vn 0.191952 0.179506 -0.964848
v 0.030250 0.027283 -0.010002
vn 0.259394 0.062916 -0.963720
v 0.039388 0.008271 -0.010001
vn 0.323892 -0.070706 -0.943448
v 0.039465 -0.009140 -0.010004
vn 0.080545 -0.144009 -0.986293
v 0.020490 -0.037989 -0.010005
# 32 vertices, 0 vertices normals

f 1//1 4//4 2//2
f 1//1 3//3 4//4
f 5//5 3//3 1//1
f 6//6 5//5 1//1
f 7//7 6//6 1//1
f 8//8 7//7 1//1
f 1//1 9//9 8//8
f 1//1 10//10 9//9
f 1//1 12//12 10//10
f 11//11 12//12 1//1
f 1//1 13//13 11//11
f 14//14 13//13 1//1
f 14//14 1//1 2//2
f 14//14 15//15 13//13
f 13//13 15//15 11//11
f 11//11 15//15 16//16
f 11//11 16//16 12//12
f 12//12 16//16 17//17
f 12//12 17//17 10//10
f 10//10 17//17 18//18
f 10//10 18//18 9//9
f 9//9 18//18 19//19
f 9//9 19//19 8//8
f 19//19 20//20 8//8
f 8//8 20//20 7//7
f 7//7 20//20 21//21
f 7//7 21//21 6//6
f 6//6 21//21 22//22
f 6//6 22//22 5//5
f 5//5 22//22 23//23
f 5//5 23//23 3//3
f 3//3 23//23 24//24
f 3//3 24//24 4//4
f 4//4 24//24 2//2
f 19//19 25//25 32//32
f 19//19 18//18 25//25
f 18//18 17//17 25//25
f 25//25 17//17 26//26
f 17//17 16//16 26//26
f 16//16 15//15 26//26
f 26//26 15//15 27//27
f 27//27 15//15 14//14
f 27//27 14//14 28//28
f 28//28 14//14 2//2
f 28//28 2//2 24//24
f 28//28 24//24 29//29
f 29//29 24//24 23//23
f 29//29 23//23 30//30
f 30//30 23//23 22//22
f 30//30 22//22 31//31
f 31//31 22//22 21//21
f 31//31 21//21 32//32
f 32//32 21//21 20//20
f 32//32 20//20 19//19
f 32//32 27//27 28//28
f 32//32 26//26 27//27
f 32//32 25//25 26//26
f 32//32 30//30 31//31
f 32//32 29//29 30//30
f 32//32 28//28 29//29
# 60 faces, 0 coords texture

# End of File
